<svg width="541" height="406" viewBox="0 0 541 406" fill="none" xmlns="http://www.w3.org/2000/svg">
<g clip-path="url(#clip0_1_88)">
<path d="M541 217.994V388.553C540.994 393.178 539.126 397.613 535.806 400.884C532.485 404.154 527.983 405.994 523.287 406H390.465L391.698 404.462L539.439 219.947L541 217.994Z" fill="#F2F2F2"/>
<path d="M211.413 157.916H58.8956C57.6459 157.916 56.4473 158.405 55.5637 159.275C54.68 160.145 54.1835 161.326 54.1835 162.557C54.1835 163.788 54.68 164.968 55.5637 165.839C56.4473 166.709 57.6459 167.198 58.8956 167.198H211.413C212.663 167.198 213.861 166.709 214.745 165.839C215.629 164.968 216.125 163.788 216.125 162.557C216.125 161.326 215.629 160.145 214.745 159.275C213.861 158.405 212.663 157.916 211.413 157.916Z" fill="#E6E6E6"/>
<path d="M106.184 131.891H58.8956C57.6459 131.891 56.4473 132.38 55.5637 133.251C54.68 134.121 54.1835 135.302 54.1835 136.533C54.1835 137.764 54.68 138.944 55.5637 139.814C56.4473 140.685 57.6459 141.174 58.8956 141.174H106.184C107.434 141.174 108.632 140.685 109.516 139.814C110.4 138.944 110.896 137.764 110.896 136.533C110.896 135.302 110.4 134.121 109.516 133.251C108.632 132.38 107.434 131.891 106.184 131.891Z" fill="#E6E6E6"/>
<path d="M523.287 0H17.7133C13.0171 0.00556958 8.515 1.84554 5.19434 5.11633C1.87368 8.38711 0.0056545 12.8217 0 17.4472V388.553C0.0056545 393.178 1.87368 397.613 5.19434 400.884C8.515 404.154 13.0171 405.994 17.7133 406H523.287C527.983 405.994 532.485 404.154 535.806 400.884C539.126 397.613 540.994 393.178 541 388.553V17.4472C540.994 12.8217 539.126 8.38711 535.806 5.11633C532.485 1.84554 527.983 0.00556958 523.287 0ZM539.439 388.553C539.439 390.642 539.021 392.711 538.209 394.641C537.397 396.571 536.208 398.325 534.708 399.802C533.208 401.28 531.427 402.452 529.468 403.251C527.508 404.051 525.408 404.462 523.287 404.462H17.7133C13.4295 404.462 9.3212 402.786 6.29212 399.802C3.26305 396.819 1.56133 392.772 1.56133 388.553V121.243C1.56133 89.4952 14.3654 59.0477 37.1567 36.5987C59.9481 14.1496 90.8598 1.53788 123.092 1.53788H523.287C525.408 1.53788 527.508 1.94939 529.468 2.74891C531.427 3.54843 533.208 4.72031 534.708 6.19763C536.208 7.67495 537.397 9.42877 538.209 11.359C539.021 13.2892 539.439 15.358 539.439 17.4472V388.553Z" fill="#E6E6E6"/>
<path d="M491.733 67.1042H49.3067C49.0997 67.1042 48.9011 67.0232 48.7547 66.879C48.6083 66.7348 48.5261 66.5392 48.5261 66.3353C48.5261 66.1313 48.6083 65.9358 48.7547 65.7916C48.9011 65.6474 49.0997 65.5663 49.3067 65.5663H491.733C491.94 65.5663 492.138 65.6474 492.285 65.7916C492.431 65.9358 492.513 66.1313 492.513 66.3353C492.513 66.5392 492.431 66.7348 492.285 66.879C492.138 67.0232 491.94 67.1042 491.733 67.1042Z" fill="#E6E6E6"/>
<path d="M71.4423 44.0203C75.0884 44.0203 78.0441 41.0441 78.0441 37.3728C78.0441 33.7014 75.0884 30.7252 71.4423 30.7252C67.7963 30.7252 64.8406 33.7014 64.8406 37.3728C64.8406 41.0441 67.7963 44.0203 71.4423 44.0203Z" fill="#E6E6E6"/>
<path d="M94.2484 44.0203C97.8945 44.0203 100.85 41.0441 100.85 37.3728C100.85 33.7014 97.8945 30.7252 94.2484 30.7252C90.6024 30.7252 87.6467 33.7014 87.6467 37.3728C87.6467 41.0441 90.6024 44.0203 94.2484 44.0203Z" fill="#E6E6E6"/>
<path d="M117.055 44.0203C120.701 44.0203 123.656 41.0441 123.656 37.3728C123.656 33.7014 120.701 30.7252 117.055 30.7252C113.409 30.7252 110.453 33.7014 110.453 37.3728C110.453 41.0441 113.409 44.0203 117.055 44.0203Z" fill="#E6E6E6"/>
<path d="M143.06 42.6268C142.956 42.6269 142.853 42.6065 142.757 42.5668C142.661 42.5271 142.574 42.4688 142.502 42.3955L138.047 37.9103C137.904 37.7666 137.824 37.5736 137.824 37.3726C137.824 37.1716 137.904 36.9786 138.047 36.835L142.502 32.3501C142.573 32.2768 142.658 32.2181 142.753 32.1775C142.848 32.1369 142.949 32.1152 143.052 32.1136C143.156 32.1119 143.258 32.1305 143.354 32.1681C143.45 32.2057 143.537 32.2617 143.611 32.3327C143.685 32.4038 143.743 32.4885 143.784 32.582C143.824 32.6756 143.845 32.776 143.846 32.8777C143.846 32.9793 143.826 33.08 143.787 33.174C143.748 33.268 143.69 33.3535 143.618 33.4254L139.697 37.3726L143.618 41.3202C143.725 41.4284 143.798 41.5654 143.826 41.7141C143.855 41.8628 143.839 42.0165 143.779 42.156C143.72 42.2955 143.619 42.4146 143.491 42.4984C143.364 42.5821 143.213 42.6268 143.06 42.6268Z" fill="#E6E6E6"/>
<path d="M150.545 42.6268C150.391 42.6268 150.241 42.5821 150.113 42.4983C149.985 42.4146 149.885 42.2955 149.825 42.156C149.766 42.0165 149.749 41.8628 149.778 41.7141C149.807 41.5654 149.879 41.4284 149.987 41.3202L153.907 37.3726L149.987 33.4254C149.844 33.2792 149.766 33.0835 149.77 32.8809C149.773 32.6783 149.857 32.4851 150.004 32.3434C150.151 32.2017 150.349 32.1229 150.555 32.1242C150.761 32.1254 150.958 32.2066 151.103 32.3501L155.557 36.8349C155.7 36.9786 155.78 37.1716 155.78 37.3726C155.78 37.5736 155.7 37.7666 155.557 37.9103L151.103 42.3955C151.03 42.4688 150.944 42.5271 150.848 42.5668C150.752 42.6065 150.649 42.6269 150.545 42.6268Z" fill="#E6E6E6"/>
<path d="M452.279 31.4949H443.996C443.772 31.4948 443.549 31.5383 443.342 31.6229C443.134 31.7075 442.946 31.8316 442.787 31.9879C442.628 32.1443 442.502 32.33 442.417 32.5343C442.331 32.7387 442.287 32.9577 442.287 33.1788V41.345C442.287 41.5661 442.331 41.7851 442.417 41.9895C442.502 42.1938 442.628 42.3795 442.787 42.5359C442.946 42.6923 443.134 42.8163 443.342 42.9009C443.549 42.9855 443.772 43.029 443.996 43.029H452.279C452.733 43.0294 453.169 42.8523 453.491 42.5367C453.813 42.221 453.995 41.7924 453.997 41.345V33.1788C453.995 32.7314 453.813 32.3028 453.491 31.9872C453.169 31.6715 452.733 31.4944 452.279 31.4949Z" fill="#E6E6E6"/>
<path d="M431.982 31.4949H423.699C423.475 31.4948 423.252 31.5383 423.045 31.6229C422.837 31.7075 422.649 31.8316 422.49 31.9879C422.331 32.1443 422.205 32.33 422.119 32.5343C422.033 32.7387 421.989 32.9577 421.989 33.1788V41.345C421.989 41.5661 422.033 41.7851 422.119 41.9895C422.205 42.1938 422.331 42.3795 422.49 42.5359C422.649 42.6923 422.837 42.8163 423.045 42.9009C423.252 42.9855 423.475 43.029 423.699 43.029H431.982C432.436 43.0294 432.872 42.8523 433.194 42.5367C433.516 42.221 433.698 41.7924 433.699 41.345V33.1788C433.698 32.7314 433.516 32.3028 433.194 31.9872C432.872 31.6715 432.436 31.4944 431.982 31.4949Z" fill="#E6E6E6"/>
<path d="M471.405 31.8793H463.123C462.898 31.8793 462.676 31.9228 462.468 32.0074C462.261 32.092 462.072 32.216 461.913 32.3724C461.755 32.5288 461.629 32.7145 461.543 32.9188C461.457 33.1232 461.413 33.3421 461.413 33.5633V41.7295C461.413 41.9506 461.457 42.1696 461.543 42.374C461.629 42.5783 461.755 42.764 461.913 42.9204C462.072 43.0767 462.261 43.2008 462.468 43.2854C462.676 43.37 462.898 43.4135 463.123 43.4134H471.405C471.86 43.4139 472.296 43.2368 472.618 42.9211C472.94 42.6055 473.121 42.1769 473.123 41.7295V33.5633C473.121 33.1159 472.94 32.6873 472.618 32.3716C472.296 32.0559 471.86 31.8789 471.405 31.8793Z" fill="#E6E6E6"/>
<path d="M303.624 34.9858H237.416C236.863 34.9858 236.333 35.2021 235.942 35.5872C235.551 35.9722 235.331 36.4944 235.331 37.0389C235.331 37.5834 235.551 38.1056 235.942 38.4906C236.333 38.8757 236.863 39.092 237.416 39.092H303.624C304.177 39.092 304.707 38.8757 305.098 38.4906C305.489 38.1056 305.708 37.5834 305.708 37.0389C305.708 36.4944 305.489 35.9722 305.098 35.5872C304.707 35.2021 304.177 34.9858 303.624 34.9858Z" fill="#E6E6E6"/>
<path d="M87.7516 289.576L55.9863 288.318C51.5806 288.143 46.6262 288.152 43.4838 291.004C39.9173 294.241 40.4573 299.975 43.4184 303.695C46.3796 307.414 51.1078 309.539 55.7485 311.267C80.4031 320.446 107.689 322.309 134.183 320.232C160.676 318.155 186.625 312.284 212.445 306.432C214.894 305.877 217.67 305.079 218.669 302.944C219.635 300.879 218.371 298.389 216.407 297.054C214.443 295.72 211.954 295.27 209.553 294.873C166.056 287.713 122.089 286.142 78.3374 290.184" fill="#FFDC63"/>
<g filter="url(#filter0_d_1_88)">
<path d="M134.793 256.244V247.017C127.995 247.112 103.668 246.949 97.3213 247.017C96.849 279.267 93.954 272.95 120.779 273.076C122.012 273.08 123.192 273.565 124.063 274.425C124.934 275.285 125.424 276.449 125.425 277.664V277.802C125.425 279.018 124.935 280.185 124.061 281.045C123.188 281.905 122.004 282.388 120.769 282.388H97.3213V291.616H134.793C134.846 291.585 134.755 282.706 134.793 282.388C136.378 255.656 133.243 265.271 110.463 264.199C109.444 264.147 108.484 263.712 107.781 262.983C107.079 262.254 106.688 261.286 106.689 260.281V260.166C106.689 259.126 107.109 258.128 107.855 257.393C108.602 256.658 109.614 256.244 110.67 256.244H134.793Z" fill="#3F3D56"/>
</g>
<g filter="url(#filter1_d_1_88)">
<path d="M177.793 256.244V247.017C170.995 247.112 146.668 246.949 140.321 247.017C139.845 279.548 136.904 272.837 164.484 273.08C165.533 273.091 166.536 273.509 167.274 274.243C168.011 274.977 168.425 275.968 168.425 277.002C168.425 277.486 168.425 277.982 168.425 278.468C168.425 278.983 168.322 279.493 168.122 279.968C167.922 280.444 167.629 280.876 167.259 281.24C166.889 281.604 166.45 281.893 165.967 282.09C165.484 282.287 164.967 282.388 164.444 282.388H140.321V291.616H177.793C177.846 291.585 177.755 282.706 177.793 282.388C179.378 255.656 176.243 265.271 153.463 264.199C152.444 264.147 151.484 263.712 150.781 262.983C150.079 262.254 149.688 261.286 149.689 260.281V260.166C149.689 259.126 150.109 258.128 150.855 257.393C151.602 256.658 152.614 256.244 153.67 256.244H177.793Z" fill="#3F3D56"/>
</g>
<g filter="url(#filter2_d_1_88)">
<path d="M92.3375 256.227V247H54.8657C54.8391 255.23 54.8848 277.013 54.8656 285.447C47.5205 297.695 89.2479 289.215 92.3396 291.602C92.3375 291.598 92.3375 282.371 92.3375 282.371C63.8268 282.225 63.1104 287.482 64.0275 262.048C64.0827 260.487 64.7511 259.007 65.8918 257.921C67.0325 256.835 68.5566 256.228 70.143 256.227C78.3855 256.227 92.3375 256.227 92.3375 256.227Z" fill="#3F3D56"/>
</g>
<path d="M222.963 205.393L183.37 204.366C177.879 204.223 171.704 204.23 167.787 206.56C163.342 209.205 164.015 213.89 167.706 216.929C171.397 219.968 177.29 221.704 183.074 223.116C213.804 230.615 247.813 232.138 280.836 230.441C313.858 228.744 346.201 223.947 378.384 219.166C381.436 218.712 384.896 218.06 386.141 216.316C387.345 214.629 385.769 212.594 383.322 211.504C380.874 210.413 377.772 210.046 374.779 209.721C320.472 203.869 265.757 202.588 211.229 205.891" fill="#FFDC63"/>
<path d="M290.5 341.413C283 341.413 276.524 336.05 276.524 336.05C273.43 335.908 269.951 335.915 267.744 338.248C265.24 340.896 265.619 345.588 267.698 348.631C269.778 351.674 273.098 353.413 276.357 354.826C293.671 362.336 312.832 363.861 331.437 362.161C350.042 360.462 368.265 355.658 386.397 350.871C388.117 350.417 390.066 349.764 390.767 348.017C391.446 346.328 390.558 344.29 389.179 343.198C387.8 342.106 386.052 341.738 384.366 341.413C353.769 335.553 317 333.79 305 341.413" fill="#FFDC63"/>
<g filter="url(#filter3_d_1_88)">
<path d="M216.033 164.891C215.395 179.137 220.711 183.621 202.371 181.806C201.132 173.308 207.415 161.514 193.004 164.509C195.891 170.674 184.961 217.445 202.368 209.103C203.346 195.051 196.902 188.887 216.033 191.037C217.568 199.724 210.407 212.507 225.4 209.488C222.514 203.321 233.444 156.553 216.033 164.891Z" fill="#3F3D56"/>
</g>
<g filter="url(#filter4_d_1_88)">
<path d="M312.055 164.891C313.34 165.673 300.274 179.289 299.992 180.404C299.6 179.452 287.129 166.131 288.635 164.892C271.281 156.445 282.096 203.489 279.264 209.492C279.267 209.49 288.635 209.49 288.635 209.49V180.272C301.802 197.765 299.357 194.821 312.055 179.413L312.055 209.49C329.408 217.939 318.593 170.89 321.426 164.889C321.423 164.891 312.055 164.891 312.055 164.891Z" fill="#3F3D56"/>
</g>
<g filter="url(#filter5_d_1_88)">
<path d="M270.679 164.891H233.208C231.006 177.826 238.286 173.488 247.261 174.118L247.26 209.49H256.627V174.119C265.561 173.52 272.909 177.769 270.679 164.891Z" fill="#3F3D56"/>
</g>
<g filter="url(#filter6_d_1_88)">
<path d="M338.597 200.263C336.433 188.568 336.433 176.585 338.597 164.891H329.229C329.283 170.738 329.213 194.328 329.218 205.116C329.217 206.28 329.686 207.397 330.522 208.221C331.357 209.044 332.49 209.508 333.672 209.509C343.11 209.521 361.128 209.452 366.701 209.49L366.701 200.263H338.597Z" fill="#3F3D56"/>
</g>
<path d="M99.2857 201.8H61.2095C59.3461 201.8 57.559 202.53 56.2414 203.827C54.9237 205.125 54.1835 206.885 54.1835 208.721C54.1835 210.556 54.9237 212.317 56.2414 213.614C57.559 214.912 59.3461 215.641 61.2095 215.641H99.2857C101.149 215.641 102.936 214.912 104.254 213.614C105.571 212.317 106.312 210.556 106.312 208.721C106.312 206.885 105.571 205.125 104.254 203.827C102.936 202.53 101.149 201.8 99.2857 201.8Z" fill="#E6E6E6"/>
<path d="M444.504 397.978L436.774 397.978L433.097 368.612L444.505 368.613L444.504 397.978Z" fill="#FFB6B6"/>
<path d="M444.776 405.921L421.007 405.92V405.624C421.007 403.207 421.982 400.889 423.717 399.18C425.452 397.471 427.805 396.511 430.259 396.511L434.601 393.267L442.701 396.512L444.776 396.512L444.776 405.921Z" fill="#292572"/>
<path d="M471.827 397.978L464.098 397.978L460.421 368.612L471.829 368.613L471.827 397.978Z" fill="#FFB6B6"/>
<path d="M472.099 405.921L448.33 405.92V405.624C448.33 403.207 449.305 400.889 451.04 399.18C452.775 397.471 455.128 396.511 457.582 396.511L461.924 393.267L470.025 396.512L472.099 396.512L472.099 405.921Z" fill="#292572"/>
<path d="M425.258 237.972C425.258 237.972 417.822 260.469 419.194 263.43C420.567 266.391 422.909 264.085 420.567 266.391C418.225 268.698 416.181 266.246 418.374 270.163C420.567 274.081 423.89 306.33 425.351 307.891C426.812 309.452 428.822 309.494 427.036 311.011C425.251 312.528 422.909 309.452 425.251 312.528C427.593 315.603 433.808 386.558 433.808 386.558H445.948C445.948 386.558 448.971 383.125 447.26 380.891C445.548 378.657 447.41 377.795 447.26 376.304C447.11 374.812 447.679 371.596 447.785 370.128C447.89 368.66 449.942 333.697 445.013 313.501L454.001 275.045L458.495 321.524C458.495 321.524 453.487 360.511 458.495 373.044C458.495 373.044 454.457 376.356 456.248 378.275C458.039 380.194 459.6 378.657 458.039 380.194C456.477 381.732 460.381 387.115 460.381 387.115L473.652 386.346L481.164 313.501C481.164 313.501 482.43 305.904 481.164 304.602C479.897 303.3 479.897 307.914 479.897 303.3V297.149C479.897 297.149 485.558 259.313 485.46 257.085C485.362 254.857 475.994 238.71 475.994 238.71L425.258 237.972Z" fill="#292572"/>
<path d="M464.51 146.981L445.132 145.668L439.333 154.674L425.368 160.266V204.63C426.821 208.925 427.572 213.421 427.593 217.948C427.54 226.787 425.233 237.198 426.032 239.478C433.838 261.778 476.775 239.478 476.775 239.478L475.994 215.641L477.054 161.77L468.28 154.877L464.51 146.981Z" fill="#FFDC63"/>
<path d="M424.472 247.602L423.136 233.576L414.895 233.209L416.843 247.99C416.343 248.716 416.059 249.565 416.022 250.441C415.986 251.318 416.198 252.187 416.635 252.952C417.073 253.716 417.718 254.345 418.498 254.768C419.279 255.191 420.163 255.391 421.053 255.346C421.943 255.3 422.802 255.012 423.534 254.512C424.266 254.012 424.842 253.321 425.197 252.517C425.552 251.712 425.673 250.826 425.545 249.958C425.417 249.09 425.045 248.274 424.472 247.602Z" fill="#FFB6B6"/>
<path d="M428.528 159.083L428.3 159.121C426.175 159.476 424.169 160.336 422.457 161.626C420.746 162.916 419.379 164.597 418.475 166.525C416.115 171.552 408.452 204.6 411.811 209.584C414.417 213.449 413.784 212.695 412.559 215.611C411.334 218.527 409.361 215.415 410.978 220.043C412.595 224.67 414.371 224.01 412.871 225.798C411.37 227.586 409.831 227.236 411.29 230.23C412.749 233.224 412.512 234.235 412.788 235.363C413.064 236.491 412.824 244.422 412.824 244.422C412.824 244.422 421.627 243.765 426.008 245.827C426.008 245.827 423.564 237.816 424.946 236.534C426.328 235.251 427.986 235.096 426.802 233.23C425.619 231.363 422.935 231.284 425.856 230.352C428.777 229.42 427.836 212.7 427.836 212.7C432.648 200.289 430.747 179.876 428.528 159.083Z" fill="#6C63FF"/>
<path d="M481.609 248.603L482.225 234.528L490.437 233.753L489.248 248.611C489.784 249.311 490.112 250.145 490.193 251.019C490.275 251.893 490.107 252.771 489.71 253.556C489.312 254.341 488.7 255.002 487.942 255.463C487.184 255.924 486.311 256.168 485.42 256.167C484.53 256.166 483.657 255.92 482.9 255.458C482.143 254.995 481.533 254.333 481.137 253.547C480.741 252.762 480.575 251.883 480.658 251.009C480.742 250.136 481.071 249.302 481.609 248.603Z" fill="#FFB6B6"/>
<path d="M473.025 160.398L473.255 160.425C475.395 160.674 477.442 161.433 479.218 162.636C480.993 163.839 482.445 165.451 483.446 167.331C486.06 172.235 494.332 205.447 492.307 210.004C490.418 214.255 490.496 213.21 491.869 216.061C493.241 218.912 495.052 215.706 493.674 220.408C492.297 225.11 490.489 224.539 492.079 226.25C493.669 227.961 495.189 227.535 493.885 230.598C492.58 233.661 492.869 234.659 492.651 235.799C492.434 236.939 493.079 244.848 493.079 244.848C493.079 244.848 484.254 244.629 479.984 246.906C479.984 246.906 482.015 238.785 480.569 237.572C479.123 236.36 477.459 236.288 478.546 234.365C479.632 232.441 482.309 232.229 479.343 231.444C476.378 230.658 476.461 213.913 476.461 213.913L473.025 160.398Z" fill="#6C63FF"/>
<path d="M455.297 142.848C463.644 142.848 470.412 136.182 470.412 127.959C470.412 119.737 463.644 113.071 455.297 113.071C446.949 113.071 440.181 119.737 440.181 127.959C440.181 136.182 446.949 142.848 455.297 142.848Z" fill="#FFB6B6"/>
<path d="M465.816 140.704C467.918 139.083 468.122 135.994 469.916 134.047C472.915 130.792 474.325 127.289 472.753 123.432C471.364 120.02 471.659 115.826 468.666 113.63C470.136 113.106 470.482 112.017 469.185 111.997C468.31 111.984 465.05 113.63 466.619 111.579C468.187 109.528 465.218 110.337 465.414 109.498C465.61 108.658 466.87 108.193 467.426 108.859C466.956 108.387 466.384 108.027 465.752 107.806C465.12 107.585 464.446 107.509 463.78 107.584C463.113 107.659 462.474 107.883 461.909 108.239C461.344 108.595 460.869 109.073 460.52 109.637C458.752 107.027 456.875 105.231 454.17 106.887C451.513 108.514 451.548 110.525 448.691 110.041C447.348 109.814 447.221 112.314 446.303 113.306C445.879 113.834 445.328 114.248 444.699 114.512C444.071 114.776 443.385 114.881 442.705 114.818C441.366 114.568 440.342 112.925 441.092 111.804L437.936 118.896L436.664 117.36C434.643 118.657 435.307 122.043 437.341 123.32C439.376 124.597 442.02 124.324 444.363 123.758C447.183 123.076 450.095 122.838 452.991 123.053C457.414 123.668 460.495 128.877 458.857 132.971C460.556 131.327 463.7 132.691 464.581 134.871C465.461 137.051 464.816 139.508 464.163 141.764" fill="#544FB1"/>
<g filter="url(#filter7_d_1_88)">
<mask id="path-38-outside-1_1_88" maskUnits="userSpaceOnUse" x="284" y="298" width="76" height="50" fill="black">
<rect fill="white" x="284" y="298" width="76" height="50"/>
<path d="M293.103 333.882C293.103 336.121 293.419 337.751 294.052 338.773C294.685 339.746 295.682 340.233 297.045 340.233C300.452 340.233 302.763 338.846 303.98 336.072C305.245 333.298 305.878 329.502 305.878 324.684C305.878 322.348 305.732 319.087 305.44 314.902C305.148 310.911 305.002 307.943 305.002 305.996C299.795 305.996 297.191 304.974 297.191 302.93C297.191 301.713 297.386 300.91 297.775 300.521C298.213 300.132 298.87 299.937 299.746 299.937C300.281 299.937 300.865 299.986 301.498 300.083C302.131 300.132 302.593 300.156 302.885 300.156C303.858 300.302 304.783 300.375 305.659 300.375C307.265 300.375 308.749 300.302 310.112 300.156C311.864 300.059 313.178 300.01 314.054 300.01C315.806 300.01 317.023 300.18 317.704 300.521C318.434 300.862 318.799 301.519 318.799 302.492C318.799 303.514 318.531 304.244 317.996 304.682C317.509 305.071 316.779 305.363 315.806 305.558L312.448 305.923C312.399 309.135 312.594 312.98 313.032 317.457C313.081 318.138 313.178 319.428 313.324 321.326C313.47 323.175 313.543 324.879 313.543 326.436C313.543 332.763 312.205 337.654 309.528 341.109C306.851 344.516 302.861 346.219 297.556 346.219C294.247 346.219 291.473 345.27 289.234 343.372C287.044 341.425 285.949 338.53 285.949 334.685C285.949 333.614 286.338 332.763 287.117 332.13C287.896 331.449 288.942 331.108 290.256 331.108C291.181 331.108 291.886 331.424 292.373 332.057C292.86 332.69 293.103 333.298 293.103 333.882ZM358.82 333.444C358.82 335.731 358.333 337.581 357.36 338.992C356.387 340.403 354.708 341.79 352.323 343.153C350.717 344.126 348.868 344.881 346.775 345.416C344.682 345.903 342.565 346.146 340.424 346.146C339.11 346.146 337.577 345.903 335.825 345.416C334.122 344.881 332.735 344.37 331.664 343.883L330.423 342.788C328.233 340.987 326.7 339.552 325.824 338.481C324.997 337.362 324.583 335.999 324.583 334.393C324.583 333.128 324.875 332.179 325.459 331.546C326.043 330.913 326.992 330.597 328.306 330.597C328.987 330.597 329.62 330.816 330.204 331.254C330.788 331.692 331.299 332.3 331.737 333.079C332.954 335.22 334.389 336.802 336.044 337.824C337.747 338.797 339.743 339.284 342.03 339.284C344.171 339.284 346.337 338.627 348.527 337.313C350.328 336.194 351.228 335.099 351.228 334.028C351.228 332.13 350.376 330.548 348.673 329.283C347.018 328.018 344.634 326.874 341.519 325.852C339.621 325.171 336.774 323.905 332.978 322.056C330.399 320.791 328.476 319.233 327.211 317.384C325.946 315.535 325.313 313.588 325.313 311.544C325.313 309.695 325.946 307.894 327.211 306.142C328.525 304.341 330.107 303.003 331.956 302.127C332.929 301.64 334.487 301.129 336.628 300.594C338.769 300.01 340.375 299.718 341.446 299.718C343.441 299.718 345.169 299.961 346.629 300.448C348.089 300.886 349.525 301.519 350.936 302.346C353.077 303.563 354.659 304.658 355.681 305.631C356.703 306.604 357.214 307.821 357.214 309.281C357.214 310.157 356.873 310.936 356.192 311.617C355.559 312.298 354.44 312.639 352.834 312.639C352.445 312.639 352.055 312.469 351.666 312.128C351.277 311.787 350.79 311.276 350.206 310.595C349.427 309.573 348.673 308.892 347.943 308.551C347.748 308.502 346.945 308.186 345.534 307.602C344.171 307.018 342.468 306.726 340.424 306.726C338.477 306.726 336.75 307.188 335.241 308.113C333.732 308.989 332.978 310.279 332.978 311.982C332.978 313.685 334.511 315.072 337.577 316.143C340.838 317.408 343.539 318.503 345.68 319.428C347.87 320.353 349.987 321.448 352.031 322.713C354.367 324.124 356.07 325.609 357.141 327.166C358.26 328.723 358.82 330.816 358.82 333.444Z"/>
</mask>
<path d="M293.103 333.882C293.103 336.121 293.419 337.751 294.052 338.773C294.685 339.746 295.682 340.233 297.045 340.233C300.452 340.233 302.763 338.846 303.98 336.072C305.245 333.298 305.878 329.502 305.878 324.684C305.878 322.348 305.732 319.087 305.44 314.902C305.148 310.911 305.002 307.943 305.002 305.996C299.795 305.996 297.191 304.974 297.191 302.93C297.191 301.713 297.386 300.91 297.775 300.521C298.213 300.132 298.87 299.937 299.746 299.937C300.281 299.937 300.865 299.986 301.498 300.083C302.131 300.132 302.593 300.156 302.885 300.156C303.858 300.302 304.783 300.375 305.659 300.375C307.265 300.375 308.749 300.302 310.112 300.156C311.864 300.059 313.178 300.01 314.054 300.01C315.806 300.01 317.023 300.18 317.704 300.521C318.434 300.862 318.799 301.519 318.799 302.492C318.799 303.514 318.531 304.244 317.996 304.682C317.509 305.071 316.779 305.363 315.806 305.558L312.448 305.923C312.399 309.135 312.594 312.98 313.032 317.457C313.081 318.138 313.178 319.428 313.324 321.326C313.47 323.175 313.543 324.879 313.543 326.436C313.543 332.763 312.205 337.654 309.528 341.109C306.851 344.516 302.861 346.219 297.556 346.219C294.247 346.219 291.473 345.27 289.234 343.372C287.044 341.425 285.949 338.53 285.949 334.685C285.949 333.614 286.338 332.763 287.117 332.13C287.896 331.449 288.942 331.108 290.256 331.108C291.181 331.108 291.886 331.424 292.373 332.057C292.86 332.69 293.103 333.298 293.103 333.882ZM358.82 333.444C358.82 335.731 358.333 337.581 357.36 338.992C356.387 340.403 354.708 341.79 352.323 343.153C350.717 344.126 348.868 344.881 346.775 345.416C344.682 345.903 342.565 346.146 340.424 346.146C339.11 346.146 337.577 345.903 335.825 345.416C334.122 344.881 332.735 344.37 331.664 343.883L330.423 342.788C328.233 340.987 326.7 339.552 325.824 338.481C324.997 337.362 324.583 335.999 324.583 334.393C324.583 333.128 324.875 332.179 325.459 331.546C326.043 330.913 326.992 330.597 328.306 330.597C328.987 330.597 329.62 330.816 330.204 331.254C330.788 331.692 331.299 332.3 331.737 333.079C332.954 335.22 334.389 336.802 336.044 337.824C337.747 338.797 339.743 339.284 342.03 339.284C344.171 339.284 346.337 338.627 348.527 337.313C350.328 336.194 351.228 335.099 351.228 334.028C351.228 332.13 350.376 330.548 348.673 329.283C347.018 328.018 344.634 326.874 341.519 325.852C339.621 325.171 336.774 323.905 332.978 322.056C330.399 320.791 328.476 319.233 327.211 317.384C325.946 315.535 325.313 313.588 325.313 311.544C325.313 309.695 325.946 307.894 327.211 306.142C328.525 304.341 330.107 303.003 331.956 302.127C332.929 301.64 334.487 301.129 336.628 300.594C338.769 300.01 340.375 299.718 341.446 299.718C343.441 299.718 345.169 299.961 346.629 300.448C348.089 300.886 349.525 301.519 350.936 302.346C353.077 303.563 354.659 304.658 355.681 305.631C356.703 306.604 357.214 307.821 357.214 309.281C357.214 310.157 356.873 310.936 356.192 311.617C355.559 312.298 354.44 312.639 352.834 312.639C352.445 312.639 352.055 312.469 351.666 312.128C351.277 311.787 350.79 311.276 350.206 310.595C349.427 309.573 348.673 308.892 347.943 308.551C347.748 308.502 346.945 308.186 345.534 307.602C344.171 307.018 342.468 306.726 340.424 306.726C338.477 306.726 336.75 307.188 335.241 308.113C333.732 308.989 332.978 310.279 332.978 311.982C332.978 313.685 334.511 315.072 337.577 316.143C340.838 317.408 343.539 318.503 345.68 319.428C347.87 320.353 349.987 321.448 352.031 322.713C354.367 324.124 356.07 325.609 357.141 327.166C358.26 328.723 358.82 330.816 358.82 333.444Z" fill="#3F3D56"/>
<path d="M294.052 338.773L293.202 339.299L293.208 339.309L293.214 339.318L294.052 338.773ZM303.98 336.072L303.07 335.657L303.067 335.664L303.064 335.67L303.98 336.072ZM305.44 314.902L306.438 314.832L306.437 314.829L305.44 314.902ZM305.002 305.996H306.002V304.996H305.002V305.996ZM297.775 300.521L297.111 299.774L297.089 299.793L297.068 299.814L297.775 300.521ZM301.498 300.083L301.346 301.071L301.383 301.077L301.421 301.08L301.498 300.083ZM302.885 300.156L303.033 299.167L302.96 299.156H302.885V300.156ZM310.112 300.156L310.057 299.158L310.031 299.159L310.005 299.162L310.112 300.156ZM317.704 300.521L317.257 301.415L317.269 301.421L317.281 301.427L317.704 300.521ZM317.996 304.682L318.621 305.463L318.629 305.456L317.996 304.682ZM315.806 305.558L315.914 306.552L315.958 306.547L316.002 306.539L315.806 305.558ZM312.448 305.923L312.34 304.929L311.462 305.024L311.448 305.908L312.448 305.923ZM313.032 317.457L314.029 317.386L314.029 317.373L314.027 317.36L313.032 317.457ZM313.324 321.326L312.327 321.403L312.327 321.405L313.324 321.326ZM309.528 341.109L310.314 341.727L310.319 341.721L309.528 341.109ZM289.234 343.372L288.57 344.119L288.578 344.127L288.587 344.135L289.234 343.372ZM287.117 332.13L287.748 332.906L287.762 332.895L287.776 332.883L287.117 332.13ZM292.373 332.057L293.166 331.447L293.166 331.447L292.373 332.057ZM292.103 333.882C292.103 336.17 292.418 338.034 293.202 339.299L294.902 338.247C294.42 337.468 294.103 336.071 294.103 333.882H292.103ZM293.214 339.318C294.065 340.628 295.412 341.233 297.045 341.233V339.233C295.952 339.233 295.304 338.865 294.89 338.228L293.214 339.318ZM297.045 341.233C298.882 341.233 300.501 340.859 301.848 340.05C303.203 339.237 304.215 338.026 304.896 336.474L303.064 335.67C302.528 336.892 301.776 337.761 300.819 338.335C299.855 338.914 298.614 339.233 297.045 339.233V341.233ZM304.89 336.487C306.239 333.529 306.878 329.571 306.878 324.684H304.878C304.878 329.433 304.252 333.067 303.07 335.657L304.89 336.487ZM306.878 324.684C306.878 322.313 306.73 319.026 306.438 314.832L304.442 314.972C304.734 319.149 304.878 322.383 304.878 324.684H306.878ZM306.437 314.829C306.146 310.843 306.002 307.904 306.002 305.996H304.002C304.002 307.981 304.15 310.98 304.443 314.975L306.437 314.829ZM305.002 304.996C302.435 304.996 300.634 304.74 299.509 304.299C298.955 304.081 298.626 303.842 298.441 303.624C298.272 303.425 298.191 303.208 298.191 302.93H296.191C296.191 303.674 296.435 304.351 296.917 304.919C297.383 305.467 298.031 305.867 298.778 306.16C300.258 306.741 302.362 306.996 305.002 306.996V304.996ZM298.191 302.93C298.191 302.367 298.237 301.948 298.309 301.651C298.383 301.345 298.467 301.243 298.482 301.228L297.068 299.814C296.694 300.188 296.486 300.683 296.365 301.18C296.243 301.685 296.191 302.276 296.191 302.93H298.191ZM298.439 301.268C298.622 301.106 298.997 300.937 299.746 300.937V298.937C298.743 298.937 297.804 299.157 297.111 299.774L298.439 301.268ZM299.746 300.937C300.222 300.937 300.754 300.98 301.346 301.071L301.65 299.095C300.976 298.991 300.341 298.937 299.746 298.937V300.937ZM301.421 301.08C302.057 301.129 302.552 301.156 302.885 301.156V299.156C302.634 299.156 302.204 299.134 301.575 299.086L301.421 301.08ZM302.737 301.145C303.753 301.297 304.728 301.375 305.659 301.375V299.375C304.838 299.375 303.963 299.307 303.033 299.167L302.737 301.145ZM305.659 301.375C307.295 301.375 308.815 301.301 310.219 301.15L310.005 299.162C308.684 299.303 307.235 299.375 305.659 299.375V301.375ZM310.167 301.154C311.915 301.057 313.207 301.01 314.054 301.01V299.01C313.149 299.01 311.813 299.06 310.057 299.158L310.167 301.154ZM314.054 301.01C315.803 301.01 316.805 301.19 317.257 301.415L318.151 299.627C317.24 299.171 315.809 299.01 314.054 299.01V301.01ZM317.281 301.427C317.47 301.515 317.578 301.624 317.651 301.755C317.73 301.897 317.799 302.126 317.799 302.492H319.799C319.799 301.884 319.685 301.298 319.399 300.784C319.107 300.257 318.668 299.867 318.127 299.615L317.281 301.427ZM317.799 302.492C317.799 303.361 317.572 303.737 317.363 303.908L318.629 305.456C319.491 304.751 319.799 303.667 319.799 302.492H317.799ZM317.371 303.901C317.062 304.148 316.51 304.397 315.61 304.577L316.002 306.539C317.049 306.329 317.956 305.994 318.621 305.463L317.371 303.901ZM315.698 304.564L312.34 304.929L312.556 306.917L315.914 306.552L315.698 304.564ZM311.448 305.908C311.399 309.169 311.596 313.053 312.037 317.554L314.027 317.36C313.592 312.906 313.4 309.101 313.448 305.938L311.448 305.908ZM312.035 317.528C312.083 318.213 312.181 319.505 312.327 321.403L314.321 321.249C314.175 319.351 314.078 318.064 314.029 317.386L312.035 317.528ZM312.327 321.405C312.471 323.233 312.543 324.909 312.543 326.436H314.543C314.543 324.848 314.469 323.118 314.321 321.247L312.327 321.405ZM312.543 326.436C312.543 332.637 311.229 337.28 308.737 340.497L310.319 341.721C313.18 338.028 314.543 332.888 314.543 326.436H312.543ZM308.742 340.491C306.297 343.602 302.63 345.219 297.556 345.219V347.219C303.091 347.219 307.405 345.429 310.314 341.727L308.742 340.491ZM297.556 345.219C294.451 345.219 291.916 344.334 289.881 342.609L288.587 344.135C291.03 346.206 294.042 347.219 297.556 347.219V345.219ZM289.898 342.625C287.983 340.922 286.949 338.338 286.949 334.685H284.949C284.949 338.721 286.105 341.928 288.57 344.119L289.898 342.625ZM286.949 334.685C286.949 333.892 287.22 333.335 287.748 332.906L286.486 331.354C285.457 332.191 284.949 333.336 284.949 334.685H286.949ZM287.776 332.883C288.327 332.4 289.117 332.108 290.256 332.108V330.108C288.767 330.108 287.464 330.497 286.458 331.377L287.776 332.883ZM290.256 332.108C290.926 332.108 291.315 332.321 291.58 332.667L293.166 331.447C292.458 330.528 291.435 330.108 290.256 330.108V332.108ZM291.58 332.667C291.981 333.188 292.103 333.587 292.103 333.882H294.103C294.103 333.009 293.738 332.191 293.166 331.447L291.58 332.667ZM357.36 338.992L358.183 339.56L358.183 339.56L357.36 338.992ZM352.323 343.153L351.827 342.285L351.816 342.291L351.805 342.298L352.323 343.153ZM346.775 345.416L347.002 346.39L347.012 346.388L347.023 346.385L346.775 345.416ZM335.825 345.416L335.525 346.37L335.541 346.375L335.557 346.38L335.825 345.416ZM331.664 343.883L331.002 344.633L331.114 344.732L331.25 344.793L331.664 343.883ZM330.423 342.788L331.085 342.038L331.072 342.027L331.058 342.016L330.423 342.788ZM325.824 338.481L325.02 339.075L325.035 339.095L325.05 339.114L325.824 338.481ZM325.459 331.546L324.724 330.868L324.724 330.868L325.459 331.546ZM330.204 331.254L330.804 330.454L330.804 330.454L330.204 331.254ZM331.737 333.079L330.866 333.569L330.868 333.573L331.737 333.079ZM336.044 337.824L335.519 338.675L335.533 338.684L335.548 338.692L336.044 337.824ZM348.527 337.313L349.042 338.17L349.048 338.166L349.055 338.162L348.527 337.313ZM348.673 329.283L348.066 330.077L348.077 330.086L348.673 329.283ZM341.519 325.852L341.181 326.793L341.194 326.798L341.207 326.802L341.519 325.852ZM332.978 322.056L332.538 322.954L332.54 322.955L332.978 322.056ZM327.211 317.384L328.036 316.819L328.036 316.819L327.211 317.384ZM327.211 306.142L326.403 305.553L326.4 305.557L327.211 306.142ZM331.956 302.127L332.384 303.031L332.394 303.026L332.403 303.021L331.956 302.127ZM336.628 300.594L336.871 301.564L336.881 301.562L336.891 301.559L336.628 300.594ZM346.629 300.448L346.313 301.397L346.327 301.401L346.342 301.406L346.629 300.448ZM350.936 302.346L350.43 303.209L350.442 303.215L350.936 302.346ZM356.192 311.617L355.485 310.91L355.472 310.923L355.459 310.937L356.192 311.617ZM351.666 312.128L351.008 312.881L351.008 312.881L351.666 312.128ZM350.206 310.595L349.411 311.201L349.428 311.224L349.447 311.246L350.206 310.595ZM347.943 308.551L348.366 307.645L348.279 307.604L348.186 307.581L347.943 308.551ZM345.534 307.602L345.14 308.521L345.152 308.526L345.534 307.602ZM335.241 308.113L335.743 308.978L335.754 308.972L335.764 308.966L335.241 308.113ZM337.577 316.143L337.939 315.211L337.923 315.205L337.907 315.199L337.577 316.143ZM345.68 319.428L345.284 320.346L345.291 320.349L345.68 319.428ZM352.031 322.713L351.505 323.563L351.514 323.569L352.031 322.713ZM357.141 327.166L356.317 327.733L356.323 327.741L356.329 327.75L357.141 327.166ZM357.82 333.444C357.82 335.595 357.362 337.227 356.537 338.424L358.183 339.56C359.305 337.934 359.82 335.867 359.82 333.444H357.82ZM356.537 338.424C355.685 339.66 354.151 340.957 351.827 342.285L352.819 344.021C355.264 342.624 357.089 341.147 358.183 339.56L356.537 338.424ZM351.805 342.298C350.294 343.213 348.539 343.933 346.527 344.447L347.023 346.385C349.197 345.829 351.14 345.039 352.841 344.008L351.805 342.298ZM346.549 344.442C344.53 344.911 342.489 345.146 340.424 345.146V347.146C342.642 347.146 344.835 346.894 347.002 346.39L346.549 344.442ZM340.424 345.146C339.228 345.146 337.788 344.923 336.093 344.452L335.557 346.38C337.366 346.882 338.993 347.146 340.424 347.146V345.146ZM336.125 344.462C334.443 343.933 333.098 343.436 332.078 342.973L331.25 344.793C332.372 345.303 333.801 345.828 335.525 346.37L336.125 344.462ZM332.326 343.133L331.085 342.038L329.761 343.538L331.002 344.633L332.326 343.133ZM331.058 342.016C328.878 340.223 327.409 338.838 326.598 337.848L325.05 339.114C325.992 340.265 327.588 341.752 329.788 343.56L331.058 342.016ZM326.628 337.887C325.947 336.965 325.583 335.819 325.583 334.393H323.583C323.583 336.179 324.046 337.758 325.02 339.075L326.628 337.887ZM325.583 334.393C325.583 333.263 325.846 332.602 326.194 332.224L324.724 330.868C323.905 331.756 323.583 332.992 323.583 334.393H325.583ZM326.194 332.224C326.508 331.884 327.125 331.597 328.306 331.597V329.597C326.859 329.597 325.578 329.943 324.724 330.868L326.194 332.224ZM328.306 331.597C328.755 331.597 329.18 331.736 329.604 332.054L330.804 330.454C330.06 329.896 329.22 329.597 328.306 329.597V331.597ZM329.604 332.054C330.055 332.392 330.481 332.885 330.866 333.569L332.609 332.589C332.117 331.716 331.521 330.992 330.804 330.454L329.604 332.054ZM330.868 333.573C332.146 335.822 333.688 337.544 335.519 338.675L336.57 336.973C335.091 336.06 333.762 334.618 332.607 332.585L330.868 333.573ZM335.548 338.692C337.426 339.765 339.598 340.284 342.03 340.284V338.284C339.888 338.284 338.069 337.829 336.54 336.956L335.548 338.692ZM342.03 340.284C344.385 340.284 346.726 339.56 349.042 338.17L348.013 336.456C345.948 337.694 343.958 338.284 342.03 338.284V340.284ZM349.055 338.162C350.007 337.571 350.781 336.95 351.325 336.287C351.875 335.619 352.228 334.861 352.228 334.028H350.228C350.228 334.266 350.131 334.59 349.78 335.017C349.425 335.45 348.848 335.936 347.999 336.464L349.055 338.162ZM352.228 334.028C352.228 331.773 351.192 329.909 349.269 328.48L348.077 330.086C349.561 331.188 350.228 332.487 350.228 334.028H352.228ZM349.281 328.489C347.501 327.128 344.998 325.941 341.831 324.902L341.207 326.802C344.269 327.807 346.536 328.908 348.066 330.077L349.281 328.489ZM341.857 324.911C340.013 324.249 337.207 323.004 333.416 321.157L332.54 322.955C336.342 324.807 339.229 326.092 341.181 326.793L341.857 324.911ZM333.419 321.158C330.951 319.948 329.181 318.492 328.036 316.819L326.386 317.949C327.772 319.975 329.846 321.633 332.538 322.954L333.419 321.158ZM328.036 316.819C326.873 315.12 326.313 313.367 326.313 311.544H324.313C324.313 313.809 325.018 315.95 326.386 317.949L328.036 316.819ZM326.313 311.544C326.313 309.939 326.858 308.339 328.022 306.727L326.4 305.557C325.033 307.449 324.313 309.451 324.313 311.544H326.313ZM328.019 306.731C329.244 305.053 330.699 303.829 332.384 303.031L331.528 301.223C329.515 302.177 327.807 303.629 326.403 305.553L328.019 306.731ZM332.403 303.021C333.274 302.586 334.743 302.096 336.871 301.564L336.386 299.624C334.23 300.163 332.585 300.695 331.509 301.233L332.403 303.021ZM336.891 301.559C339.018 300.979 340.516 300.718 341.446 300.718V298.718C340.235 298.718 338.521 299.041 336.365 299.629L336.891 301.559ZM341.446 300.718C343.364 300.718 344.98 300.952 346.313 301.397L346.945 299.499C345.358 298.97 343.519 298.718 341.446 298.718V300.718ZM346.342 301.406C347.72 301.819 349.083 302.419 350.43 303.209L351.442 301.483C349.967 300.619 348.458 299.953 346.916 299.49L346.342 301.406ZM350.442 303.215C352.557 304.417 354.057 305.465 354.991 306.355L356.371 304.907C355.262 303.851 353.598 302.708 351.43 301.477L350.442 303.215ZM354.991 306.355C355.808 307.133 356.214 308.084 356.214 309.281H358.214C358.214 307.558 357.599 306.076 356.371 304.907L354.991 306.355ZM356.214 309.281C356.214 309.864 355.999 310.396 355.485 310.91L356.899 312.324C357.747 311.476 358.214 310.45 358.214 309.281H356.214ZM355.459 310.937C355.115 311.307 354.352 311.639 352.834 311.639V313.639C354.528 313.639 356.004 313.289 356.925 312.297L355.459 310.937ZM352.834 311.639C352.757 311.639 352.592 311.61 352.325 311.375L351.008 312.881C351.518 313.328 352.132 313.639 352.834 313.639V311.639ZM352.325 311.375C351.988 311.081 351.537 310.611 350.965 309.944L349.447 311.246C350.043 311.941 350.566 312.494 351.008 312.881L352.325 311.375ZM351.002 309.989C350.177 308.907 349.305 308.083 348.366 307.645L347.52 309.457C348.041 309.7 348.678 310.239 349.411 311.201L351.002 309.989ZM348.186 307.581C348.195 307.583 348.155 307.572 348.027 307.525C347.913 307.484 347.759 307.425 347.561 307.347C347.168 307.192 346.62 306.969 345.916 306.678L345.152 308.526C345.859 308.819 346.419 309.046 346.828 309.208C347.204 309.356 347.525 309.477 347.701 309.521L348.186 307.581ZM345.928 306.683C344.403 306.029 342.556 305.726 340.424 305.726V307.726C342.381 307.726 343.94 308.007 345.14 308.521L345.928 306.683ZM340.424 305.726C338.312 305.726 336.4 306.23 334.719 307.26L335.764 308.966C337.1 308.147 338.643 307.726 340.424 307.726V305.726ZM334.739 307.248C332.931 308.298 331.978 309.912 331.978 311.982H333.978C333.978 310.646 334.534 309.68 335.743 308.978L334.739 307.248ZM331.978 311.982C331.978 313.176 332.529 314.202 333.457 315.041C334.363 315.861 335.652 316.53 337.247 317.087L337.907 315.199C336.436 314.685 335.426 314.126 334.799 313.558C334.193 313.01 333.978 312.492 333.978 311.982H331.978ZM337.215 317.075C340.469 318.338 343.158 319.428 345.284 320.346L346.077 318.51C343.92 317.579 341.206 316.479 337.939 315.211L337.215 317.075ZM345.291 320.349C347.433 321.254 349.504 322.325 351.505 323.563L352.557 321.863C350.47 320.571 348.307 319.452 346.069 318.507L345.291 320.349ZM351.514 323.569C353.778 324.937 355.354 326.332 356.317 327.733L357.965 326.599C356.786 324.885 354.956 323.312 352.548 321.857L351.514 323.569ZM356.329 327.75C357.288 329.084 357.82 330.95 357.82 333.444H359.82C359.82 330.682 359.233 328.362 357.953 326.582L356.329 327.75Z" fill="#3F3D56" mask="url(#path-38-outside-1_1_88)"/>
</g>
</g>
<defs>
<filter id="filter0_d_1_88" x="93" y="247" width="46.1404" height="52.6156" filterUnits="userSpaceOnUse" color-interpolation-filters="sRGB">
<feFlood flood-opacity="0" result="BackgroundImageFix"/>
<feColorMatrix in="SourceAlpha" type="matrix" values="0 0 0 0 0 0 0 0 0 0 0 0 0 0 0 0 0 0 127 0" result="hardAlpha"/>
<feOffset dy="4"/>
<feGaussianBlur stdDeviation="2"/>
<feComposite in2="hardAlpha" operator="out"/>
<feColorMatrix type="matrix" values="0 0 0 0 0 0 0 0 0 0 0 0 0 0 0 0 0 0 0.25 0"/>
<feBlend mode="normal" in2="BackgroundImageFix" result="effect1_dropShadow_1_88"/>
<feBlend mode="normal" in="SourceGraphic" in2="effect1_dropShadow_1_88" result="shape"/>
</filter>
<filter id="filter1_d_1_88" x="136" y="247" width="46.1404" height="52.6156" filterUnits="userSpaceOnUse" color-interpolation-filters="sRGB">
<feFlood flood-opacity="0" result="BackgroundImageFix"/>
<feColorMatrix in="SourceAlpha" type="matrix" values="0 0 0 0 0 0 0 0 0 0 0 0 0 0 0 0 0 0 127 0" result="hardAlpha"/>
<feOffset dy="4"/>
<feGaussianBlur stdDeviation="2"/>
<feComposite in2="hardAlpha" operator="out"/>
<feColorMatrix type="matrix" values="0 0 0 0 0 0 0 0 0 0 0 0 0 0 0 0 0 0 0.25 0"/>
<feBlend mode="normal" in2="BackgroundImageFix" result="effect1_dropShadow_1_88"/>
<feBlend mode="normal" in="SourceGraphic" in2="effect1_dropShadow_1_88" result="shape"/>
</filter>
<filter id="filter2_d_1_88" x="50" y="247" width="46.3396" height="53.2687" filterUnits="userSpaceOnUse" color-interpolation-filters="sRGB">
<feFlood flood-opacity="0" result="BackgroundImageFix"/>
<feColorMatrix in="SourceAlpha" type="matrix" values="0 0 0 0 0 0 0 0 0 0 0 0 0 0 0 0 0 0 127 0" result="hardAlpha"/>
<feOffset dy="4"/>
<feGaussianBlur stdDeviation="2"/>
<feComposite in2="hardAlpha" operator="out"/>
<feColorMatrix type="matrix" values="0 0 0 0 0 0 0 0 0 0 0 0 0 0 0 0 0 0 0.25 0"/>
<feBlend mode="normal" in2="BackgroundImageFix" result="effect1_dropShadow_1_88"/>
<feBlend mode="normal" in="SourceGraphic" in2="effect1_dropShadow_1_88" result="shape"/>
</filter>
<filter id="filter3_d_1_88" x="188.226" y="163.899" width="41.9526" height="54.1972" filterUnits="userSpaceOnUse" color-interpolation-filters="sRGB">
<feFlood flood-opacity="0" result="BackgroundImageFix"/>
<feColorMatrix in="SourceAlpha" type="matrix" values="0 0 0 0 0 0 0 0 0 0 0 0 0 0 0 0 0 0 127 0" result="hardAlpha"/>
<feOffset dy="4"/>
<feGaussianBlur stdDeviation="2"/>
<feComposite in2="hardAlpha" operator="out"/>
<feColorMatrix type="matrix" values="0 0 0 0 0 0 0 0 0 0 0 0 0 0 0 0 0 0 0.25 0"/>
<feBlend mode="normal" in2="BackgroundImageFix" result="effect1_dropShadow_1_88"/>
<feBlend mode="normal" in="SourceGraphic" in2="effect1_dropShadow_1_88" result="shape"/>
</filter>
<filter id="filter4_d_1_88" x="274.491" y="163.88" width="51.7074" height="54.622" filterUnits="userSpaceOnUse" color-interpolation-filters="sRGB">
<feFlood flood-opacity="0" result="BackgroundImageFix"/>
<feColorMatrix in="SourceAlpha" type="matrix" values="0 0 0 0 0 0 0 0 0 0 0 0 0 0 0 0 0 0 127 0" result="hardAlpha"/>
<feOffset dy="4"/>
<feGaussianBlur stdDeviation="2"/>
<feComposite in2="hardAlpha" operator="out"/>
<feColorMatrix type="matrix" values="0 0 0 0 0 0 0 0 0 0 0 0 0 0 0 0 0 0 0.25 0"/>
<feBlend mode="normal" in2="BackgroundImageFix" result="effect1_dropShadow_1_88"/>
<feBlend mode="normal" in="SourceGraphic" in2="effect1_dropShadow_1_88" result="shape"/>
</filter>
<filter id="filter5_d_1_88" x="228.811" y="164.891" width="46.2713" height="52.5985" filterUnits="userSpaceOnUse" color-interpolation-filters="sRGB">
<feFlood flood-opacity="0" result="BackgroundImageFix"/>
<feColorMatrix in="SourceAlpha" type="matrix" values="0 0 0 0 0 0 0 0 0 0 0 0 0 0 0 0 0 0 127 0" result="hardAlpha"/>
<feOffset dy="4"/>
<feGaussianBlur stdDeviation="2"/>
<feComposite in2="hardAlpha" operator="out"/>
<feColorMatrix type="matrix" values="0 0 0 0 0 0 0 0 0 0 0 0 0 0 0 0 0 0 0.25 0"/>
<feBlend mode="normal" in2="BackgroundImageFix" result="effect1_dropShadow_1_88"/>
<feBlend mode="normal" in="SourceGraphic" in2="effect1_dropShadow_1_88" result="shape"/>
</filter>
<filter id="filter6_d_1_88" x="325.218" y="164.891" width="45.4835" height="52.6187" filterUnits="userSpaceOnUse" color-interpolation-filters="sRGB">
<feFlood flood-opacity="0" result="BackgroundImageFix"/>
<feColorMatrix in="SourceAlpha" type="matrix" values="0 0 0 0 0 0 0 0 0 0 0 0 0 0 0 0 0 0 127 0" result="hardAlpha"/>
<feOffset dy="4"/>
<feGaussianBlur stdDeviation="2"/>
<feComposite in2="hardAlpha" operator="out"/>
<feColorMatrix type="matrix" values="0 0 0 0 0 0 0 0 0 0 0 0 0 0 0 0 0 0 0.25 0"/>
<feBlend mode="normal" in2="BackgroundImageFix" result="effect1_dropShadow_1_88"/>
<feBlend mode="normal" in="SourceGraphic" in2="effect1_dropShadow_1_88" result="shape"/>
</filter>
<filter id="filter7_d_1_88" x="281.949" y="299.718" width="80.8711" height="54.501" filterUnits="userSpaceOnUse" color-interpolation-filters="sRGB">
<feFlood flood-opacity="0" result="BackgroundImageFix"/>
<feColorMatrix in="SourceAlpha" type="matrix" values="0 0 0 0 0 0 0 0 0 0 0 0 0 0 0 0 0 0 127 0" result="hardAlpha"/>
<feOffset dy="4"/>
<feGaussianBlur stdDeviation="2"/>
<feComposite in2="hardAlpha" operator="out"/>
<feColorMatrix type="matrix" values="0 0 0 0 0 0 0 0 0 0 0 0 0 0 0 0 0 0 0.25 0"/>
<feBlend mode="normal" in2="BackgroundImageFix" result="effect1_dropShadow_1_88"/>
<feBlend mode="normal" in="SourceGraphic" in2="effect1_dropShadow_1_88" result="shape"/>
</filter>
<clipPath id="clip0_1_88">
<rect width="541" height="406" fill="white"/>
</clipPath>
</defs>
</svg>

