<svg width="482" height="406" viewBox="0 0 482 406" fill="none" xmlns="http://www.w3.org/2000/svg">
<g clip-path="url(#clip0_1_9)">
<path d="M434.59 211.289C434.653 261.527 414.573 309.832 378.572 346.051C376.401 348.248 374.172 350.393 371.884 352.484C368.399 355.69 364.797 358.772 361.078 361.73C326.283 389.452 282.847 405.03 237.775 405.951C236.273 405.984 234.766 406 233.253 406C197.307 406 152.096 387.433 111.066 361.73C107.672 359.603 104.308 357.428 100.973 355.203C99.4151 354.172 97.8642 353.127 96.3209 352.068C80.4965 341.262 65.476 329.395 51.3702 316.555C42.1346 308.173 33.4741 299.218 25.4437 289.745C-6.08182 252.139 -13.0352 218.254 31.9098 211.289C37.2311 210.467 42.3956 209.588 47.4033 208.653C54.6571 207.305 61.5992 205.849 68.2296 204.285C77.1608 202.186 85.5517 199.91 93.4024 197.456C96.0432 196.634 98.6236 195.796 101.144 194.941C138.398 182.287 163.333 165.786 180.306 147.881C183.185 144.851 185.839 141.784 188.268 138.68C191.985 133.956 195.361 128.99 198.372 123.817C202.529 116.63 206.02 109.102 208.805 101.32L208.958 100.893C222.463 63.221 218.354 28.2783 233.253 16.5832C296.938 -33.4139 376.225 37.7867 413.441 121.751C415.316 125.982 417.081 130.238 418.734 134.52C419.476 136.433 420.192 138.349 420.881 140.269C422.695 145.273 424.34 150.289 425.817 155.318C426.384 157.236 426.924 159.153 427.438 161.067C427.988 163.133 428.515 165.194 429.002 167.254C432.623 182.342 434.59 197.221 434.59 211.289Z" fill="#F2F2F2"/>
<path d="M237.775 405.951C236.273 405.984 234.766 406 233.253 406C197.307 406 152.096 387.433 111.066 361.73C107.672 359.603 104.308 357.428 100.974 355.203L103.898 337.994L192.422 326.628L236.851 359.483L237.775 405.951Z" fill="#FFDC63"/>
<path d="M242.036 98.6734H229.422C229.031 98.6735 228.656 98.8237 228.38 99.0909C228.104 99.358 227.949 99.7203 227.948 100.098V112.303C227.949 112.49 227.987 112.675 228.061 112.847C228.135 113.02 228.244 113.176 228.381 113.308C228.518 113.44 228.68 113.544 228.859 113.615C229.037 113.687 229.229 113.723 229.422 113.722H242.036C242.426 113.722 242.8 113.573 243.077 113.307C243.353 113.041 243.509 112.68 243.51 112.303V100.098C243.509 99.7206 243.353 99.3588 243.077 99.0919C242.801 98.8249 242.427 98.6745 242.036 98.6734Z" fill="white"/>
<path d="M242.036 119.471H229.422C229.031 119.471 228.656 119.622 228.38 119.889C228.104 120.156 227.949 120.518 227.948 120.896V133.101C227.949 133.288 227.987 133.473 228.061 133.645C228.135 133.818 228.244 133.974 228.381 134.106C228.518 134.238 228.68 134.342 228.859 134.413C229.037 134.484 229.229 134.521 229.422 134.52H242.036C242.426 134.52 242.8 134.371 243.077 134.105C243.353 133.839 243.509 133.478 243.51 133.101V120.896C243.509 120.519 243.353 120.157 243.077 119.89C242.801 119.623 242.427 119.472 242.036 119.471Z" fill="#E6E6E6"/>
<path d="M242.036 140.269H229.422C229.031 140.269 228.656 140.42 228.38 140.687C228.104 140.954 227.949 141.316 227.948 141.694V153.893C227.948 154.081 227.986 154.266 228.06 154.439C228.134 154.612 228.242 154.769 228.379 154.902C228.516 155.034 228.678 155.139 228.857 155.21C229.036 155.282 229.228 155.318 229.422 155.318H242.036C242.427 155.318 242.802 155.168 243.078 154.901C243.354 154.633 243.51 154.271 243.51 153.893V141.694C243.509 141.316 243.353 140.955 243.077 140.688C242.801 140.421 242.427 140.27 242.036 140.269Z" fill="#E6E6E6"/>
<path d="M243.487 162.24C243.424 161.912 243.245 161.615 242.98 161.401C242.715 161.187 242.382 161.069 242.036 161.067H229.422C229.031 161.067 228.656 161.217 228.38 161.485C228.104 161.752 227.949 162.114 227.948 162.492V174.691C227.948 174.878 227.986 175.064 228.06 175.237C228.134 175.41 228.242 175.567 228.379 175.7C228.516 175.832 228.678 175.937 228.857 176.008C229.036 176.08 229.228 176.116 229.422 176.116H242.036C242.427 176.116 242.802 175.966 243.078 175.699C243.354 175.431 243.51 175.069 243.51 174.691V162.492C243.511 162.407 243.503 162.323 243.487 162.24Z" fill="#E6E6E6"/>
<path d="M242.609 181.975C242.427 181.902 242.233 181.865 242.036 181.865H229.422C229.228 181.865 229.036 181.901 228.857 181.973C228.679 182.044 228.516 182.149 228.379 182.281C228.242 182.414 228.134 182.571 228.06 182.744C227.986 182.917 227.948 183.103 227.948 183.29V195.489C227.948 195.676 227.985 195.862 228.059 196.035C228.133 196.209 228.241 196.366 228.378 196.499C228.515 196.631 228.678 196.736 228.857 196.807C229.036 196.879 229.228 196.915 229.422 196.914H242.036C242.427 196.914 242.802 196.764 243.078 196.496C243.354 196.229 243.51 195.867 243.51 195.489V183.29C243.509 183.009 243.424 182.735 243.263 182.502C243.103 182.268 242.876 182.085 242.609 181.975Z" fill="#E6E6E6"/>
<path d="M268.535 98.6734H255.921C255.53 98.6735 255.155 98.8237 254.879 99.0909C254.603 99.358 254.447 99.7203 254.447 100.098V112.303C254.447 112.49 254.486 112.675 254.56 112.847C254.634 113.02 254.743 113.176 254.88 113.308C255.016 113.44 255.179 113.544 255.357 113.615C255.536 113.687 255.727 113.723 255.921 113.722H268.535C268.925 113.722 269.299 113.573 269.575 113.307C269.852 113.041 270.007 112.68 270.009 112.303V100.098C270.008 99.7206 269.852 99.3588 269.576 99.0919C269.3 98.8249 268.926 98.6745 268.535 98.6734Z" fill="#E6E6E6"/>
<path d="M268.535 119.471H255.921C255.53 119.471 255.155 119.622 254.879 119.889C254.603 120.156 254.447 120.518 254.447 120.896V133.101C254.447 133.288 254.486 133.473 254.56 133.645C254.634 133.818 254.743 133.974 254.88 134.106C255.016 134.238 255.179 134.342 255.357 134.413C255.536 134.484 255.727 134.521 255.921 134.52H268.535C268.925 134.52 269.299 134.371 269.575 134.105C269.852 133.839 270.007 133.478 270.009 133.101V120.896C270.008 120.519 269.852 120.157 269.576 119.89C269.3 119.623 268.926 119.472 268.535 119.471Z" fill="#FFDC63"/>
<path d="M268.535 140.269H255.921C255.53 140.269 255.155 140.42 254.879 140.687C254.603 140.954 254.447 141.316 254.447 141.694V153.893C254.447 154.081 254.485 154.266 254.559 154.439C254.633 154.612 254.741 154.769 254.878 154.902C255.015 155.034 255.177 155.139 255.356 155.21C255.535 155.282 255.727 155.318 255.921 155.318H268.535C268.926 155.318 269.301 155.168 269.577 154.901C269.853 154.633 270.009 154.271 270.009 153.893V141.694C270.008 141.316 269.852 140.955 269.576 140.688C269.3 140.421 268.926 140.27 268.535 140.269Z" fill="#FFDC63"/>
<path d="M268.535 161.067H255.921C255.612 161.067 255.311 161.162 255.06 161.337C254.81 161.512 254.623 161.759 254.527 162.043C254.474 162.187 254.447 162.339 254.447 162.492V174.691C254.447 174.878 254.485 175.064 254.559 175.237C254.633 175.41 254.741 175.567 254.878 175.7C255.015 175.832 255.177 175.937 255.356 176.008C255.535 176.08 255.727 176.116 255.921 176.116H268.535C268.926 176.116 269.301 175.966 269.577 175.699C269.853 175.431 270.009 175.069 270.009 174.691V162.492C270.008 162.114 269.852 161.753 269.576 161.486C269.3 161.219 268.926 161.068 268.535 161.067Z" fill="#FFDC63"/>
<path d="M268.535 181.865H255.921C255.727 181.865 255.535 181.901 255.356 181.973C255.177 182.044 255.015 182.149 254.878 182.281C254.741 182.414 254.633 182.571 254.559 182.744C254.485 182.917 254.447 183.103 254.447 183.29V195.489C254.447 195.676 254.485 195.862 254.559 196.035C254.633 196.208 254.741 196.365 254.878 196.497C255.015 196.63 255.177 196.735 255.356 196.806C255.535 196.878 255.727 196.914 255.921 196.914H268.535C268.926 196.914 269.301 196.764 269.577 196.496C269.853 196.229 270.009 195.867 270.009 195.489V183.29C270.009 182.912 269.853 182.55 269.577 182.282C269.301 182.015 268.926 181.865 268.535 181.865Z" fill="#E6E6E6"/>
<path d="M295.034 98.6734H282.42C282.029 98.6735 281.654 98.8237 281.378 99.0909C281.102 99.358 280.946 99.7203 280.946 100.098V112.303C280.946 112.49 280.985 112.675 281.059 112.847C281.133 113.02 281.242 113.176 281.378 113.308C281.515 113.44 281.678 113.544 281.856 113.615C282.035 113.687 282.226 113.723 282.42 113.722H295.034C295.424 113.722 295.798 113.573 296.074 113.307C296.351 113.041 296.506 112.68 296.508 112.303V100.098C296.507 99.7206 296.351 99.3588 296.075 99.0919C295.799 98.8249 295.425 98.6745 295.034 98.6734Z" fill="#FFDC63"/>
<path d="M295.034 119.471H282.42C282.029 119.471 281.654 119.622 281.378 119.889C281.102 120.156 280.946 120.518 280.946 120.896V133.101C280.946 133.288 280.985 133.473 281.059 133.645C281.133 133.818 281.242 133.974 281.378 134.106C281.515 134.238 281.678 134.342 281.856 134.413C282.035 134.484 282.226 134.521 282.42 134.52H295.034C295.424 134.52 295.798 134.371 296.074 134.105C296.351 133.839 296.506 133.478 296.508 133.101V120.896C296.507 120.519 296.351 120.157 296.075 119.89C295.799 119.623 295.425 119.472 295.034 119.471Z" fill="#FFDC63"/>
<path d="M295.034 140.269H282.42C282.029 140.269 281.654 140.42 281.378 140.687C281.102 140.954 280.946 141.316 280.946 141.694V153.893C280.946 154.081 280.984 154.266 281.058 154.439C281.131 154.612 281.24 154.769 281.377 154.902C281.514 155.034 281.676 155.139 281.855 155.21C282.034 155.282 282.226 155.318 282.42 155.318H295.034C295.425 155.318 295.8 155.168 296.076 154.901C296.352 154.633 296.508 154.271 296.508 153.893V141.694C296.507 141.316 296.351 140.955 296.075 140.688C295.799 140.421 295.425 140.27 295.034 140.269Z" fill="#E6E6E6"/>
<path d="M295.034 161.067H282.42C282.029 161.067 281.654 161.217 281.378 161.485C281.102 161.752 280.946 162.114 280.946 162.492V174.691C280.946 174.878 280.984 175.064 281.058 175.237C281.131 175.41 281.24 175.567 281.377 175.7C281.514 175.832 281.676 175.937 281.855 176.008C282.034 176.08 282.226 176.116 282.42 176.116H295.034C295.425 176.116 295.8 175.966 296.076 175.699C296.352 175.431 296.508 175.069 296.508 174.691V162.492C296.507 162.114 296.351 161.753 296.075 161.486C295.799 161.219 295.425 161.068 295.034 161.067Z" fill="#FFDC63"/>
<path d="M295.034 181.865H282.42C282.226 181.865 282.034 181.901 281.855 181.973C281.676 182.044 281.514 182.149 281.377 182.281C281.24 182.414 281.131 182.571 281.058 182.744C280.984 182.917 280.946 183.103 280.946 183.29V195.489C280.946 195.676 280.984 195.862 281.058 196.035C281.131 196.208 281.24 196.365 281.377 196.497C281.514 196.63 281.676 196.735 281.855 196.806C282.034 196.878 282.226 196.914 282.42 196.914H295.034C295.425 196.914 295.8 196.764 296.076 196.496C296.352 196.229 296.508 195.867 296.508 195.489V183.29C296.508 182.912 296.352 182.55 296.076 182.282C295.8 182.015 295.425 181.865 295.034 181.865Z" fill="#FFDC63"/>
<path d="M321.533 98.6734H308.918C308.528 98.6735 308.153 98.8237 307.877 99.0909C307.6 99.358 307.445 99.7203 307.445 100.098V112.303C307.445 112.49 307.483 112.675 307.558 112.847C307.632 113.02 307.74 113.176 307.877 113.308C308.014 113.44 308.177 113.544 308.355 113.615C308.534 113.687 308.725 113.723 308.918 113.722H321.533C321.923 113.722 322.297 113.573 322.573 113.307C322.849 113.041 323.005 112.68 323.007 112.303V100.098C323.005 99.7206 322.85 99.3588 322.574 99.0919C322.298 98.8249 321.924 98.6745 321.533 98.6734Z" fill="#FFDC63"/>
<path d="M321.533 119.471H308.918C308.528 119.471 308.153 119.622 307.877 119.889C307.6 120.156 307.445 120.518 307.445 120.896V133.101C307.445 133.288 307.483 133.473 307.558 133.645C307.632 133.818 307.74 133.974 307.877 134.106C308.014 134.238 308.177 134.342 308.355 134.413C308.534 134.484 308.725 134.521 308.918 134.52H321.533C321.923 134.52 322.297 134.371 322.573 134.105C322.849 133.839 323.005 133.478 323.007 133.101V120.896C323.005 120.519 322.85 120.157 322.574 119.89C322.298 119.623 321.924 119.472 321.533 119.471Z" fill="white"/>
<path d="M321.533 140.269H308.918C308.528 140.269 308.153 140.419 307.877 140.687C307.6 140.954 307.445 141.316 307.445 141.694V153.893C307.445 154.081 307.482 154.266 307.556 154.439C307.63 154.612 307.739 154.769 307.876 154.902C308.013 155.034 308.175 155.139 308.354 155.21C308.533 155.282 308.725 155.318 308.918 155.318H321.533C321.924 155.318 322.299 155.168 322.575 154.901C322.851 154.633 323.006 154.271 323.007 153.893V141.694C323.006 141.316 322.85 140.955 322.574 140.688C322.298 140.421 321.924 140.27 321.533 140.269Z" fill="white"/>
<path d="M321.533 161.067H308.918C308.528 161.067 308.153 161.217 307.877 161.485C307.6 161.752 307.445 162.114 307.445 162.492V174.691C307.445 174.878 307.482 175.064 307.556 175.237C307.63 175.41 307.739 175.567 307.876 175.7C308.013 175.832 308.175 175.937 308.354 176.008C308.533 176.08 308.725 176.116 308.918 176.116H321.533C321.924 176.116 322.299 175.966 322.575 175.699C322.851 175.431 323.006 175.069 323.007 174.691V162.492C323.005 162.114 322.85 161.753 322.574 161.486C322.298 161.219 321.924 161.068 321.533 161.067Z" fill="#E6E6E6"/>
<path d="M321.533 181.865H308.918C308.725 181.865 308.533 181.901 308.354 181.973C308.175 182.044 308.013 182.149 307.876 182.281C307.739 182.414 307.63 182.571 307.556 182.744C307.482 182.917 307.445 183.103 307.445 183.29V195.489C307.445 195.676 307.482 195.862 307.556 196.035C307.63 196.208 307.739 196.365 307.876 196.497C308.013 196.63 308.175 196.735 308.354 196.806C308.533 196.878 308.725 196.914 308.918 196.914H321.533C321.924 196.914 322.299 196.764 322.575 196.496C322.851 196.229 323.006 195.867 323.007 195.489V183.29C323.006 182.912 322.851 182.55 322.575 182.282C322.299 182.015 321.924 181.865 321.533 181.865Z" fill="#FFDC63"/>
<path d="M348.032 98.6734H335.412C335.022 98.6747 334.648 98.8254 334.373 99.0925C334.098 99.3595 333.944 99.7212 333.944 100.098V112.303C333.944 112.679 334.099 113.04 334.374 113.307C334.649 113.573 335.022 113.722 335.412 113.722H348.032C348.422 113.722 348.796 113.573 349.072 113.307C349.348 113.041 349.504 112.68 349.506 112.303V100.098C349.504 99.7206 349.349 99.3588 349.073 99.0919C348.797 98.8249 348.422 98.6745 348.032 98.6734Z" fill="white"/>
<path d="M348.032 119.471H335.412C335.022 119.473 334.648 119.623 334.373 119.89C334.098 120.157 333.944 120.519 333.944 120.896V133.101C333.944 133.477 334.099 133.838 334.374 134.104C334.649 134.371 335.022 134.52 335.412 134.52H348.032C348.422 134.52 348.796 134.371 349.072 134.105C349.348 133.839 349.504 133.478 349.506 133.101V120.896C349.504 120.519 349.349 120.157 349.073 119.89C348.797 119.623 348.423 119.472 348.032 119.471Z" fill="white"/>
<path d="M348.032 140.269H335.412C335.022 140.27 334.648 140.421 334.373 140.688C334.098 140.955 333.944 141.317 333.944 141.694V153.893C333.943 154.08 333.981 154.265 334.054 154.438C334.128 154.611 334.236 154.768 334.372 154.9C334.509 155.032 334.671 155.137 334.849 155.209C335.027 155.281 335.218 155.318 335.412 155.318H348.032C348.423 155.318 348.797 155.168 349.074 154.901C349.35 154.633 349.505 154.271 349.506 153.893V141.694C349.504 141.316 349.349 140.955 349.073 140.688C348.797 140.421 348.423 140.27 348.032 140.269Z" fill="white"/>
<path d="M348.032 161.067H335.412C335.022 161.068 334.648 161.219 334.373 161.486C334.098 161.753 333.944 162.115 333.944 162.492V174.691C333.943 174.878 333.981 175.063 334.054 175.236C334.128 175.409 334.236 175.566 334.372 175.698C334.509 175.83 334.671 175.935 334.849 176.007C335.027 176.079 335.218 176.116 335.412 176.116H348.032C348.423 176.116 348.797 175.966 349.074 175.699C349.35 175.431 349.505 175.069 349.506 174.691V162.492C349.504 162.114 349.349 161.753 349.073 161.486C348.797 161.219 348.423 161.068 348.032 161.067Z" fill="#FFDC63"/>
<path d="M348.032 181.865H335.412C335.218 181.865 335.027 181.902 334.849 181.974C334.671 182.046 334.509 182.151 334.372 182.283C334.236 182.415 334.128 182.572 334.054 182.745C333.981 182.918 333.943 183.103 333.944 183.29V195.489C333.943 195.676 333.981 195.861 334.054 196.034C334.128 196.206 334.236 196.364 334.372 196.496C334.509 196.628 334.671 196.733 334.849 196.805C335.027 196.877 335.218 196.914 335.412 196.914H348.032C348.423 196.914 348.797 196.764 349.074 196.496C349.35 196.229 349.505 195.867 349.506 195.489V183.29C349.505 182.912 349.35 182.55 349.074 182.282C348.797 182.015 348.423 181.865 348.032 181.865Z" fill="#E6E6E6"/>
<path d="M374.531 98.6734H361.911C361.521 98.6747 361.147 98.8254 360.872 99.0925C360.597 99.3595 360.443 99.7212 360.443 100.098V112.303C360.443 112.679 360.598 113.04 360.873 113.307C361.148 113.573 361.521 113.722 361.911 113.722H374.531C374.921 113.722 375.295 113.573 375.571 113.307C375.847 113.041 376.003 112.68 376.004 112.303V100.098C376.003 99.7206 375.848 99.3589 375.572 99.0919C375.296 98.8249 374.921 98.6745 374.531 98.6734Z" fill="white"/>
<path d="M374.531 119.471H361.911C361.521 119.473 361.147 119.623 360.872 119.89C360.597 120.157 360.443 120.519 360.443 120.896V133.101C360.443 133.477 360.598 133.838 360.873 134.104C361.148 134.371 361.521 134.52 361.911 134.52H374.531C374.921 134.52 375.295 134.371 375.571 134.105C375.847 133.839 376.003 133.478 376.004 133.101V120.896C376.003 120.519 375.848 120.157 375.572 119.89C375.296 119.623 374.921 119.472 374.531 119.471Z" fill="white"/>
<path d="M374.531 140.269H361.911C361.521 140.27 361.147 140.421 360.872 140.688C360.597 140.955 360.443 141.317 360.443 141.694V153.893C360.442 154.08 360.48 154.265 360.553 154.438C360.627 154.611 360.735 154.768 360.871 154.9C361.007 155.032 361.169 155.137 361.348 155.209C361.526 155.281 361.717 155.318 361.911 155.318H374.531C374.922 155.318 375.296 155.168 375.573 154.901C375.849 154.633 376.004 154.271 376.004 153.893V141.694C376.003 141.316 375.848 140.955 375.572 140.688C375.296 140.421 374.921 140.27 374.531 140.269Z" fill="#FFDC63"/>
<path d="M374.531 161.067H361.911C361.521 161.068 361.147 161.219 360.872 161.486C360.597 161.753 360.443 162.115 360.443 162.492V174.691C360.442 174.878 360.48 175.063 360.553 175.236C360.627 175.409 360.735 175.566 360.871 175.698C361.007 175.83 361.169 175.935 361.348 176.007C361.526 176.079 361.717 176.116 361.911 176.116H374.531C374.922 176.116 375.296 175.966 375.573 175.699C375.849 175.431 376.004 175.069 376.004 174.691V162.492C376.003 162.114 375.848 161.753 375.572 161.486C375.296 161.219 374.921 161.068 374.531 161.067Z" fill="#E6E6E6"/>
<path d="M374.531 181.865H361.911C361.717 181.865 361.526 181.902 361.348 181.974C361.169 182.046 361.007 182.151 360.871 182.283C360.735 182.415 360.627 182.572 360.553 182.745C360.48 182.918 360.442 183.103 360.443 183.29V195.489C360.442 195.676 360.48 195.861 360.553 196.034C360.627 196.206 360.735 196.364 360.871 196.496C361.007 196.628 361.169 196.733 361.348 196.805C361.526 196.877 361.717 196.914 361.911 196.914H374.531C374.922 196.914 375.296 196.764 375.573 196.496C375.849 196.229 376.004 195.867 376.004 195.489V183.29C376.004 182.912 375.849 182.55 375.573 182.282C375.296 182.015 374.922 181.865 374.531 181.865Z" fill="white"/>
<path d="M401.03 98.6734H388.409C388.02 98.6747 387.646 98.8254 387.371 99.0925C387.096 99.3595 386.942 99.7212 386.942 100.098V112.303C386.942 112.679 387.096 113.04 387.372 113.307C387.647 113.573 388.02 113.722 388.409 113.722H401.03C401.42 113.722 401.794 113.573 402.07 113.307C402.346 113.041 402.502 112.68 402.503 112.303V100.098C402.502 99.7206 402.347 99.3589 402.07 99.0919C401.794 98.8249 401.42 98.6745 401.03 98.6734Z" fill="#FFDC63"/>
<path d="M401.03 119.471H388.409C388.02 119.473 387.646 119.623 387.371 119.89C387.096 120.157 386.942 120.519 386.942 120.896V133.101C386.942 133.477 387.096 133.838 387.372 134.104C387.647 134.371 388.02 134.52 388.409 134.52H401.03C401.42 134.52 401.794 134.371 402.07 134.105C402.346 133.839 402.502 133.478 402.503 133.101V120.896C402.502 120.519 402.347 120.157 402.071 119.89C401.794 119.623 401.42 119.472 401.03 119.471Z" fill="#FFDC63"/>
<path d="M401.03 140.269H388.409C388.02 140.27 387.646 140.421 387.371 140.688C387.096 140.955 386.942 141.317 386.942 141.694V153.893C386.941 154.08 386.979 154.265 387.052 154.438C387.126 154.611 387.234 154.768 387.37 154.9C387.506 155.032 387.668 155.137 387.847 155.209C388.025 155.281 388.216 155.318 388.409 155.318H401.03C401.421 155.318 401.795 155.168 402.072 154.901C402.348 154.633 402.503 154.271 402.503 153.893V141.694C402.502 141.316 402.347 140.955 402.071 140.688C401.794 140.421 401.42 140.27 401.03 140.269Z" fill="#E6E6E6"/>
<path d="M401.03 161.067H388.409C388.02 161.068 387.646 161.219 387.371 161.486C387.096 161.753 386.942 162.115 386.942 162.492V174.691C386.941 174.878 386.979 175.063 387.052 175.236C387.126 175.409 387.234 175.566 387.37 175.698C387.506 175.83 387.668 175.935 387.847 176.007C388.025 176.079 388.216 176.116 388.409 176.116H401.03C401.421 176.116 401.795 175.966 402.072 175.699C402.348 175.431 402.503 175.069 402.503 174.691V162.492C402.502 162.114 402.347 161.753 402.071 161.486C401.794 161.219 401.42 161.068 401.03 161.067Z" fill="white"/>
<path d="M401.03 181.865H388.409C388.216 181.865 388.025 181.902 387.847 181.974C387.668 182.046 387.506 182.151 387.37 182.283C387.234 182.415 387.126 182.572 387.052 182.745C386.979 182.918 386.941 183.103 386.942 183.29V195.489C386.941 195.676 386.979 195.861 387.052 196.034C387.126 196.206 387.234 196.364 387.37 196.496C387.506 196.628 387.668 196.733 387.847 196.805C388.025 196.877 388.216 196.914 388.409 196.914H401.03C401.421 196.914 401.795 196.764 402.072 196.496C402.348 196.229 402.503 195.867 402.503 195.489V183.29C402.503 182.912 402.348 182.55 402.072 182.282C401.795 182.015 401.421 181.865 401.03 181.865Z" fill="#FFDC63"/>
<path d="M427.529 98.6734H414.908C414.519 98.6747 414.145 98.8254 413.87 99.0925C413.595 99.3595 413.44 99.7212 413.441 100.098V112.303C413.441 112.679 413.595 113.04 413.871 113.307C414.146 113.573 414.519 113.722 414.908 113.722H427.529C427.919 113.722 428.293 113.573 428.569 113.307C428.845 113.041 429.001 112.68 429.002 112.303V100.098C429.001 99.7206 428.845 99.3589 428.569 99.0919C428.293 98.8249 427.919 98.6745 427.529 98.6734Z" fill="#FFDC63"/>
<path d="M427.529 119.471H414.908C414.519 119.473 414.145 119.623 413.87 119.89C413.595 120.157 413.44 120.519 413.441 120.896V133.101C413.441 133.477 413.595 133.838 413.871 134.104C414.146 134.371 414.519 134.52 414.908 134.52H427.529C427.919 134.52 428.293 134.371 428.569 134.105C428.845 133.839 429.001 133.478 429.002 133.101V120.896C429.001 120.519 428.845 120.157 428.569 119.89C428.293 119.623 427.919 119.472 427.529 119.471Z" fill="#FFDC63"/>
<path d="M427.529 140.269H414.908C414.519 140.27 414.145 140.421 413.87 140.688C413.595 140.955 413.44 141.317 413.441 141.694V153.893C413.44 154.08 413.478 154.265 413.551 154.438C413.625 154.611 413.733 154.768 413.869 154.9C414.005 155.032 414.167 155.137 414.346 155.209C414.524 155.281 414.715 155.318 414.908 155.318H427.529C427.919 155.318 428.294 155.168 428.57 154.901C428.847 154.633 429.002 154.271 429.002 153.893V141.694C429.001 141.316 428.845 140.955 428.569 140.688C428.293 140.421 427.919 140.27 427.529 140.269Z" fill="#E6E6E6"/>
<path d="M427.529 161.067H414.908C414.519 161.068 414.145 161.219 413.87 161.486C413.595 161.753 413.44 162.115 413.441 162.492V174.691C413.44 174.878 413.478 175.063 413.551 175.236C413.625 175.409 413.733 175.566 413.869 175.698C414.005 175.83 414.167 175.935 414.346 176.007C414.524 176.079 414.715 176.116 414.908 176.116H427.529C427.919 176.116 428.294 175.966 428.57 175.699C428.847 175.431 429.002 175.069 429.002 174.691V162.492C429.001 162.114 428.845 161.753 428.569 161.486C428.293 161.219 427.919 161.068 427.529 161.067Z" fill="#FFDC63"/>
<path d="M427.529 181.865H414.908C414.715 181.865 414.524 181.902 414.346 181.974C414.167 182.046 414.005 182.151 413.869 182.283C413.733 182.415 413.625 182.572 413.551 182.745C413.478 182.918 413.44 183.103 413.441 183.29V195.489C413.44 195.676 413.478 195.861 413.551 196.034C413.625 196.206 413.733 196.364 413.869 196.496C414.005 196.628 414.167 196.733 414.346 196.805C414.524 196.877 414.715 196.914 414.908 196.914H427.529C427.919 196.914 428.294 196.764 428.57 196.496C428.847 196.229 429.002 195.867 429.002 195.489V183.29C429.002 182.912 428.847 182.55 428.57 182.282C428.294 182.015 427.919 181.865 427.529 181.865Z" fill="#FFDC63"/>
<path d="M454.028 98.6734H441.407C441.017 98.6747 440.644 98.8254 440.369 99.0925C440.094 99.3595 439.939 99.7212 439.939 100.098V112.303C439.94 112.679 440.094 113.04 440.369 113.307C440.645 113.573 441.018 113.722 441.407 113.722H454.028C454.417 113.722 454.791 113.573 455.068 113.307C455.344 113.041 455.5 112.68 455.501 112.303V100.098C455.5 99.7206 455.344 99.3589 455.068 99.0919C454.792 98.8249 454.418 98.6745 454.028 98.6734Z" fill="#E6E6E6"/>
<path d="M454.028 119.471H441.407C441.017 119.473 440.644 119.623 440.369 119.89C440.094 120.157 439.939 120.519 439.939 120.896V133.101C439.94 133.477 440.094 133.838 440.369 134.104C440.645 134.371 441.018 134.52 441.407 134.52H454.028C454.417 134.52 454.791 134.371 455.068 134.105C455.344 133.839 455.5 133.478 455.501 133.101V120.896C455.5 120.519 455.344 120.157 455.068 119.89C454.792 119.623 454.418 119.472 454.028 119.471Z" fill="#FFDC63"/>
<path d="M454.028 140.269H441.407C441.017 140.27 440.644 140.421 440.369 140.688C440.094 140.955 439.939 141.317 439.939 141.694V153.893C439.939 154.08 439.976 154.265 440.05 154.438C440.124 154.611 440.232 154.768 440.368 154.9C440.504 155.032 440.666 155.137 440.845 155.209C441.023 155.281 441.214 155.318 441.407 155.318H454.028C454.418 155.318 454.793 155.168 455.069 154.901C455.346 154.633 455.501 154.271 455.501 153.893V141.694C455.5 141.316 455.344 140.955 455.068 140.688C454.792 140.421 454.418 140.27 454.028 140.269Z" fill="#FFDC63"/>
<path d="M454.028 161.067H441.407C441.017 161.068 440.644 161.219 440.369 161.486C440.094 161.753 439.939 162.115 439.939 162.492V174.691C439.939 174.878 439.977 175.063 440.05 175.236C440.123 175.409 440.232 175.566 440.368 175.698C440.504 175.83 440.666 175.935 440.844 176.007C441.023 176.079 441.214 176.116 441.407 176.116H454.028C454.418 176.116 454.793 175.966 455.069 175.699C455.346 175.431 455.501 175.069 455.501 174.691V162.492C455.5 162.114 455.344 161.753 455.068 161.486C454.792 161.219 454.418 161.068 454.028 161.067Z" fill="#FFDC63"/>
<path d="M454.028 181.865H441.407C441.214 181.865 441.023 181.902 440.844 181.974C440.666 182.046 440.504 182.151 440.368 182.283C440.232 182.415 440.123 182.572 440.05 182.745C439.977 182.918 439.939 183.103 439.939 183.29V195.489C439.939 195.676 439.977 195.861 440.05 196.034C440.123 196.206 440.232 196.364 440.368 196.496C440.504 196.628 440.666 196.733 440.844 196.805C441.023 196.877 441.214 196.914 441.407 196.914H454.028C454.418 196.914 454.793 196.764 455.069 196.496C455.346 196.229 455.501 195.867 455.501 195.489V183.29C455.501 182.912 455.346 182.55 455.069 182.282C454.793 182.015 454.418 181.865 454.028 181.865Z" fill="#E6E6E6"/>
<path d="M480.527 98.6734H467.906C467.516 98.6747 467.143 98.8254 466.868 99.0925C466.593 99.3595 466.438 99.7212 466.438 100.098V112.303C466.438 112.679 466.593 113.04 466.868 113.307C467.144 113.573 467.517 113.722 467.906 113.722H480.527C480.916 113.722 481.29 113.573 481.567 113.307C481.843 113.041 481.999 112.68 482 112.303V100.098C481.999 99.7206 481.843 99.3589 481.567 99.0919C481.291 98.8249 480.917 98.6745 480.527 98.6734Z" fill="#E6E6E6"/>
<path d="M480.527 119.471H467.906C467.516 119.473 467.143 119.623 466.868 119.89C466.593 120.157 466.438 120.519 466.438 120.896V133.101C466.438 133.477 466.593 133.838 466.868 134.104C467.144 134.371 467.517 134.52 467.906 134.52H480.527C480.916 134.52 481.29 134.371 481.567 134.105C481.843 133.839 481.999 133.478 482 133.101V120.896C481.999 120.519 481.843 120.157 481.567 119.89C481.291 119.623 480.917 119.472 480.527 119.471Z" fill="#E6E6E6"/>
<path d="M480.527 140.269H467.906C467.516 140.27 467.143 140.421 466.868 140.688C466.593 140.955 466.438 141.317 466.438 141.694V153.893C466.438 154.08 466.475 154.265 466.549 154.438C466.622 154.611 466.73 154.768 466.867 154.9C467.003 155.032 467.165 155.137 467.343 155.209C467.522 155.281 467.713 155.318 467.906 155.318H480.527C480.917 155.318 481.292 155.168 481.568 154.901C481.844 154.633 482 154.271 482 153.893V141.694C481.999 141.316 481.843 140.955 481.567 140.688C481.291 140.421 480.917 140.27 480.527 140.269Z" fill="#FFDC63"/>
<path d="M480.527 161.067H467.906C467.516 161.068 467.143 161.219 466.868 161.486C466.593 161.753 466.438 162.115 466.438 162.492V174.691C466.438 174.878 466.475 175.063 466.549 175.236C466.622 175.409 466.73 175.566 466.867 175.698C467.003 175.83 467.165 175.935 467.343 176.007C467.522 176.079 467.713 176.116 467.906 176.116H480.527C480.917 176.116 481.292 175.966 481.568 175.699C481.844 175.431 482 175.069 482 174.691V162.492C481.999 162.114 481.843 161.753 481.567 161.486C481.291 161.219 480.917 161.068 480.527 161.067Z" fill="#E6E6E6"/>
<path d="M480.527 181.865H467.906C467.713 181.865 467.522 181.902 467.343 181.974C467.165 182.046 467.003 182.151 466.867 182.283C466.73 182.415 466.622 182.572 466.549 182.745C466.475 182.918 466.438 183.103 466.438 183.29V195.489C466.438 195.676 466.475 195.861 466.549 196.034C466.622 196.206 466.73 196.364 466.867 196.496C467.003 196.628 467.165 196.733 467.343 196.805C467.522 196.877 467.713 196.914 467.906 196.914H480.527C480.917 196.914 481.292 196.764 481.568 196.496C481.844 196.229 482 195.867 482 195.489V183.29C482 182.912 481.844 182.55 481.568 182.282C481.292 182.015 480.917 181.865 480.527 181.865Z" fill="#E6E6E6"/>
<path d="M190.465 361.732H190.114L190.414 361.692L190.465 361.732Z" fill="#2F2E41"/>
<path d="M160.271 134.298C181.654 134.298 198.989 117.535 198.989 96.8556C198.989 76.1766 181.654 59.4129 160.271 59.4129C138.888 59.4129 121.553 76.1766 121.553 96.8556C121.553 117.535 138.888 134.298 160.271 134.298Z" fill="#FFB6B6"/>
<path d="M194.178 69.4033C194.178 69.4033 204.304 50.6819 182.025 48.9799C182.025 48.9799 163.032 32.3185 143.673 45.934C143.673 45.934 133.114 45.934 127.34 57.4896C127.34 57.4896 119.035 54.4437 117.21 62.5955C117.21 62.5955 111.133 79.6149 117.21 94.9324C123.287 110.25 125.305 111.952 125.305 111.952C125.305 111.952 115.319 79.8379 139.626 78.1359C163.932 76.4339 191.131 61.7445 193.157 80.4658C195.182 99.1872 198.231 103.8 198.231 103.8C198.231 103.8 217.47 77.062 194.178 69.4033Z" fill="#5A578B"/>
<path d="M260.426 189.132L260.301 189.768L258.901 196.914L249.228 246.347L248.656 249.257L247.454 255.411L245.811 263.807L242.167 282.413L241.124 287.745L240.733 289.745L240.597 290.447L239.515 295.966L239.186 297.632L236.545 316.555L234.239 333.046L241.957 340.51L237.355 344.96L234.335 361.691L234.341 361.73H111.066C106.079 358.606 101.164 355.385 96.3209 352.068L97.3353 344.724C97.3353 344.724 100.826 331.61 99.3583 330.042C97.8964 328.475 94.6887 325.675 94.6887 325.675L98.7294 316.555L99.2904 315.289L98.3497 296.421L98.3271 295.966L98.0154 289.745L97.9757 288.945L97.9133 287.745L96.7176 263.807L96.6949 263.412L96.3323 256.156L95.9922 249.257L95.8449 246.347L94.3885 217.23L93.4024 197.457L92.5411 180.243L96.0036 179.108L133.037 166.936L148.378 147.651L180.306 147.881L195.936 147.996L222.015 171.386L227.948 174.127L227.994 174.149L232.25 176.116L243.04 181.098L254.447 186.37L260.301 189.072L260.426 189.132Z" fill="#CACACA"/>
<path d="M152.504 305.557C150.164 306.434 147.654 306.803 145.151 306.64C142.647 306.477 140.211 305.785 138.014 304.614C135.817 303.442 133.913 301.818 132.435 299.857C130.957 297.896 129.941 295.646 129.46 293.265L69.0729 284.979L90.0651 262.016L144.191 273.404C148.382 272.887 152.623 273.875 156.11 276.18C159.598 278.484 162.091 281.947 163.115 285.91C164.14 289.873 163.626 294.062 161.67 297.683C159.714 301.304 156.453 304.106 152.504 305.557Z" fill="#FFB6B6"/>
<path d="M125.58 263.807C124.461 262.436 122.877 261.49 121.108 261.138L96.3323 256.156L93.7878 255.647C92.3091 255.348 90.9121 254.751 89.6885 253.895C88.4648 253.038 87.442 251.941 86.687 250.676C85.9038 249.348 85.4299 247.87 85.2986 246.347C85.1805 244.961 85.352 243.567 85.8029 242.247L94.3884 217.23L99.9591 200.997C100.634 199.039 101.033 197.002 101.144 194.941C101.454 189.238 99.6291 183.617 96.0035 179.108C92.816 175.146 88.395 172.279 83.3936 170.933C78.3922 169.587 73.0757 169.833 68.2295 171.633C68.0879 171.683 67.9405 171.737 67.7988 171.792C64.3234 173.134 61.2184 175.239 58.7291 177.942C56.2397 180.644 54.4344 183.869 53.4557 187.362L47.4033 208.653L34.9189 252.545C33.6691 256.943 33.4167 261.549 34.1787 266.05C34.9408 270.551 36.6994 274.839 39.3342 278.622C41.969 282.404 45.4178 285.591 49.4445 287.965C53.4712 290.339 57.9808 291.844 62.6645 292.376L98.3496 296.421L114.863 298.295C116.773 298.517 118.699 298.035 120.257 296.945C121.816 295.855 122.893 294.238 123.273 292.414C123.3 292.315 123.321 292.215 123.335 292.113L123.732 289.745L127.093 269.808L127.127 269.605C127.302 268.588 127.255 267.546 126.988 266.548C126.722 265.549 126.242 264.615 125.58 263.807Z" fill="#CACACA"/>
<path d="M190.968 306.196C193.412 306.745 195.951 306.769 198.406 306.266C200.86 305.763 203.171 304.746 205.175 303.286C207.179 301.826 208.828 299.959 210.006 297.816C211.183 295.674 211.86 293.307 211.99 290.884L270.565 274.446L246.434 254.575L194.509 273.231C190.285 273.29 186.231 274.846 183.114 277.604C179.997 280.361 178.034 284.129 177.598 288.192C177.161 292.256 178.281 296.333 180.745 299.651C183.21 302.969 186.847 305.298 190.968 306.196Z" fill="#FFB6B6"/>
<path d="M299.647 237.677L271.788 175.672C269.51 170.582 265.44 166.436 260.301 163.972C258.713 163.215 257.045 162.627 255.326 162.218C255.059 162.152 254.793 162.092 254.527 162.042C250.881 161.273 247.101 161.341 243.487 162.24C240.184 163.06 237.097 164.545 234.428 166.597C231.758 168.649 229.566 171.222 227.994 174.149C227.976 174.173 227.961 174.199 227.948 174.225C226.192 177.511 225.258 181.149 225.222 184.847C225.186 188.545 226.048 192.199 227.739 195.516L228.084 196.185L247.772 234.421C248.444 235.729 248.823 237.159 248.883 238.618C248.943 240.077 248.684 241.532 248.122 242.887C247.56 244.243 246.709 245.468 245.623 246.483C244.537 247.497 243.241 248.278 241.821 248.774L240.438 249.257L215.572 257.943C213.706 258.587 212.171 259.906 211.29 261.622C210.41 263.338 210.252 265.318 210.851 267.145L210.913 267.336L217.884 288.907C217.918 289.006 217.952 289.104 217.991 289.203C218.053 289.389 218.128 289.57 218.218 289.745C218.959 291.352 220.268 292.651 221.911 293.407C223.553 294.164 225.421 294.328 227.178 293.872L240.597 290.447L243.334 289.745L277.988 280.895C282.548 279.73 286.793 277.625 290.434 274.726C294.074 271.826 297.024 268.201 299.081 264.096C301.138 259.992 302.254 255.506 302.351 250.946C302.449 246.386 301.527 241.86 299.647 237.677Z" fill="#CACACA"/>
<path d="M25.4437 289.745C33.4741 299.218 42.1347 308.173 51.3702 316.555H307.502C309.969 316.559 312.335 317.509 314.079 319.197C315.824 320.885 316.805 323.173 316.807 325.56L317.175 388.326C332.932 381.325 347.688 372.386 361.078 361.73C364.795 358.776 368.397 355.694 371.884 352.484C374.168 350.391 376.397 348.246 378.572 346.051C394.872 329.629 408.072 310.572 417.572 289.745H25.4437Z" fill="#FEAA5D"/>
<path d="M378.572 346.051C376.401 348.248 374.172 350.393 371.885 352.484H317.362V346.051H378.572Z" fill="white"/>
<path d="M259.916 140.269C259.647 139.788 259.248 139.387 258.762 139.107C258.276 138.827 257.721 138.68 257.156 138.68H71.3691C70.5361 138.682 69.738 139.003 69.1495 139.573C68.5611 140.143 68.2303 140.916 68.2296 141.721V249.257H260.301V141.721C260.304 141.213 260.171 140.713 259.916 140.269Z" fill="#88879E"/>
<path d="M68.0613 246.345V259.615C68.0613 260.165 68.1734 260.71 68.3911 261.218C68.6087 261.727 68.9278 262.188 69.3301 262.577C69.7323 262.966 70.2098 263.275 70.7354 263.486C71.2609 263.696 71.8242 263.804 72.3931 263.804H143.285V289.993H142.344C142.27 289.993 142.197 290.007 142.128 290.035C142.06 290.062 141.998 290.102 141.946 290.152C141.893 290.203 141.852 290.263 141.824 290.329C141.795 290.395 141.781 290.466 141.781 290.537V292.359C141.781 292.43 141.795 292.501 141.824 292.567C141.852 292.633 141.893 292.693 141.946 292.744C141.998 292.794 142.06 292.834 142.128 292.862C142.197 292.889 142.27 292.903 142.344 292.903H186.353C186.427 292.903 186.5 292.889 186.568 292.862C186.636 292.834 186.698 292.794 186.751 292.744C186.803 292.693 186.844 292.633 186.873 292.567C186.901 292.501 186.915 292.43 186.915 292.359V290.537C186.915 290.466 186.901 290.395 186.873 290.329C186.844 290.263 186.803 290.203 186.751 290.152C186.698 290.102 186.636 290.062 186.568 290.035C186.5 290.007 186.427 289.993 186.353 289.993H185.411V263.804H256.303C256.872 263.804 257.435 263.696 257.961 263.486C258.486 263.275 258.964 262.966 259.366 262.577C259.768 262.188 260.088 261.727 260.305 261.218C260.523 260.71 260.635 260.165 260.635 259.615V246.345H68.0613Z" fill="#3F3D56"/>
<path d="M162.021 208.259C171.82 208.259 179.763 200.577 179.763 191.102C179.763 181.626 171.82 173.945 162.021 173.945C152.223 173.945 144.28 181.626 144.28 191.102C144.28 200.577 152.223 208.259 162.021 208.259Z" fill="#FFDC63"/>
<path d="M207.224 94.8097H204.391C204.391 74.094 183.19 60.5192 161.803 60.5082C158.692 60.4994 155.588 60.7914 152.538 61.3796C149.103 62.0427 145.539 62.8374 142.037 63.8732C128.226 67.967 115.419 75.8806 115.419 94.8097C115.416 98.4859 115.899 102.147 116.858 105.705L114.115 106.395C113.098 102.612 112.584 98.7187 112.585 94.8097C112.585 78.27 119.607 66.9093 131.734 60.1356C138.109 56.5733 145.89 54.2771 154.804 53.1591C158.514 52.6818 162.264 52.5717 165.997 52.8303C190.591 54.5401 207.224 72.7787 207.224 94.8097Z" fill="#FFDC63"/>
<path d="M211.945 96.3277L210.828 88.3484C210.553 86.3333 209.549 84.4773 207.995 83.1092C206.997 82.2172 205.802 81.5564 204.502 81.1766C203.201 80.7968 201.828 80.7081 200.486 80.917L198.712 81.1527C198.227 81.2144 197.759 81.3688 197.336 81.6068C196.913 81.8449 196.543 82.1618 196.247 82.5392C195.949 82.9153 195.731 83.3449 195.606 83.8029C195.48 84.261 195.45 84.7386 195.516 85.2081L198.095 103.589C198.201 104.338 198.548 105.036 199.087 105.584C199.626 106.132 200.33 106.502 201.098 106.642C201.326 106.686 201.557 106.708 201.789 106.708C201.956 106.707 202.123 106.696 202.288 106.675L204.272 106.417C205.481 106.262 206.645 105.869 207.691 105.263C208.738 104.657 209.645 103.851 210.358 102.893C210.511 102.685 210.658 102.471 210.794 102.252C211.856 100.459 212.262 98.3714 211.945 96.3277Z" fill="#FFDC63"/>
<path d="M197.568 81.487C197.047 81.7314 196.595 82.0921 196.247 82.5392C195.949 82.9154 195.731 83.3449 195.606 83.803C195.48 84.2611 195.45 84.7386 195.516 85.2081L198.095 103.589C198.201 104.338 198.548 105.036 199.087 105.584C199.626 106.132 200.33 106.502 201.098 106.642L197.568 81.487Z" fill="white"/>
<path d="M211.945 96.3277L210.828 88.3484C210.553 86.3332 209.549 84.4773 207.995 83.1091L210.562 101.397C210.6 101.691 210.679 101.978 210.794 102.252C211.856 100.459 212.262 98.3714 211.945 96.3277Z" fill="#3F3D56"/>
<path d="M203.121 102.077C203.897 101.975 204.287 100.191 203.992 98.0914C203.697 95.9919 202.83 94.3724 202.055 94.4742C201.279 94.5759 200.89 96.3603 201.184 98.4597C201.479 100.559 202.346 102.179 203.121 102.077Z" fill="#3F3D56"/>
<path d="M201.421 92.2124C202.197 92.1107 202.586 90.3263 202.292 88.2268C201.997 86.1273 201.13 84.5078 200.355 84.6096C199.579 84.7113 199.19 86.4957 199.484 88.5952C199.779 90.6946 200.646 92.3141 201.421 92.2124Z" fill="#3F3D56"/>
<path d="M212.189 96.0486C212.964 95.9469 213.354 94.1625 213.059 92.063C212.765 89.9636 211.897 88.3441 211.122 88.4458C210.347 88.5475 209.957 90.3319 210.251 92.4314C210.546 94.5309 211.413 96.1503 212.189 96.0486Z" fill="#3F3D56"/>
<path d="M161.803 60.5082C158.692 60.4994 155.588 60.7913 152.538 61.3796C149.103 62.0427 145.539 62.8374 142.037 63.8732C136.568 63.6156 132.544 62.2455 131.734 60.1356C138.109 56.5733 145.89 54.2771 154.804 53.1591C158.514 52.6818 162.264 52.5717 165.997 52.8303C166.392 53.0543 166.733 53.3566 166.999 53.7174C167.265 54.0783 167.448 54.4894 167.538 54.9238C167.804 56.8309 165.555 58.8586 161.803 60.5082Z" fill="#545170"/>
<path d="M125.625 113.826L121.261 96.2839C121.106 95.651 120.76 95.0767 120.268 94.633C119.776 94.1894 119.16 93.8962 118.496 93.7904C118.308 93.7621 118.119 93.7475 117.929 93.7465C117.662 93.7474 117.396 93.7787 117.136 93.8397L115.447 94.2343C113.273 94.7428 111.396 96.0648 110.228 97.91C109.061 99.7553 108.698 101.973 109.219 104.077L111.174 111.947C111.621 113.799 112.684 115.459 114.2 116.671C114.446 116.863 114.703 117.04 114.971 117.202C115.921 117.778 116.98 118.164 118.087 118.337C119.194 118.51 120.325 118.467 121.414 118.211L123.097 117.816C123.543 117.716 123.961 117.527 124.327 117.263C124.871 116.879 125.285 116.347 125.517 115.735C125.748 115.124 125.785 114.459 125.625 113.826Z" fill="#FFDC63"/>
<path d="M116.477 110.562C117.238 110.385 117.439 108.572 116.926 106.512C116.414 104.452 115.382 102.926 114.621 103.103C113.86 103.28 113.659 105.093 114.172 107.153C114.684 109.213 115.716 110.74 116.477 110.562Z" fill="#3F3D56"/>
<path d="M110.81 112.207C111.571 112.03 111.772 110.216 111.259 108.156C110.747 106.096 109.715 104.57 108.954 104.747C108.193 104.924 107.992 106.737 108.505 108.797C109.017 110.857 110.049 112.384 110.81 112.207Z" fill="#3F3D56"/>
<path d="M125.903 113.761L121.539 96.2181C121.369 95.5333 120.994 94.9123 120.461 94.4327C119.927 93.9531 119.26 93.6362 118.541 93.5218L124.497 117.482C125.085 117.065 125.533 116.49 125.783 115.827C126.033 115.165 126.075 114.446 125.903 113.761Z" fill="white"/>
<path d="M110.205 100.602C110.085 100.115 109.859 99.657 109.542 99.2597C108.929 100.796 108.816 102.477 109.219 104.077L111.174 111.947C111.621 113.799 112.684 115.459 114.2 116.671L110.205 100.602Z" fill="#3F3D56"/>
</g>
<defs>
<clipPath id="clip0_1_9">
<rect width="482" height="406" fill="white"/>
</clipPath>
</defs>
</svg>

