<svg width="373" height="285" viewBox="0 0 373 285" fill="none" xmlns="http://www.w3.org/2000/svg">
<path d="M238.691 127.275H200.392C197.635 127.275 195.407 125.217 195.407 122.67V75.9131C195.407 73.3664 197.635 71.3084 200.392 71.3084H238.691C241.449 71.3084 243.677 73.3664 243.677 75.9131V122.656C243.677 125.202 241.449 127.275 238.691 127.275Z" fill="white"/>
<path d="M241.256 127.631H197.827C196.272 127.631 195.006 126.461 195.006 125.025V73.5441C195.006 72.1079 196.272 70.9383 197.827 70.9383H241.256C242.811 70.9383 244.078 72.1079 244.078 73.5441V125.025C244.078 126.461 242.811 127.631 241.256 127.631ZM197.827 71.6638C196.705 71.6638 195.791 72.5077 195.791 73.5441V125.025C195.791 126.061 196.705 126.905 197.827 126.905H241.256C242.379 126.905 243.292 126.061 243.292 125.025V73.5441C243.292 72.5077 242.379 71.6638 241.256 71.6638H197.827Z" fill="#58A7F7"/>
<path d="M238.467 78.4893H201.034C200.392 78.4893 199.863 78.0007 199.863 77.4085C199.863 76.8162 200.392 76.3276 201.034 76.3276H238.467C239.108 76.3276 239.637 76.8162 239.637 77.4085C239.637 78.0155 239.108 78.4893 238.467 78.4893Z" fill="#CEE4FD"/>
<path d="M215.077 82.6794H201.034C200.392 82.6794 199.863 82.1908 199.863 81.5986C199.863 81.0064 200.392 80.5178 201.034 80.5178H215.077C215.718 80.5178 216.247 81.0064 216.247 81.5986C216.247 82.1908 215.718 82.6794 215.077 82.6794Z" fill="#CEE4FD"/>
<path d="M215.718 112.884H201.034C200.392 112.884 199.863 112.395 199.863 111.803C199.863 111.211 200.392 110.722 201.034 110.722H215.718C216.36 110.722 216.889 111.211 216.889 111.803C216.889 112.395 216.36 112.884 215.718 112.884Z" fill="#CEE4FD"/>
<path d="M210.588 117.074H201.034C200.392 117.074 199.863 116.585 199.863 115.993C199.863 115.401 200.392 114.912 201.034 114.912H210.588C211.23 114.912 211.759 115.401 211.759 115.993C211.759 116.585 211.23 117.074 210.588 117.074Z" fill="#CEE4FD"/>
<path d="M215.718 121.264H201.034C200.392 121.264 199.863 120.775 199.863 120.183C199.863 119.591 200.392 119.102 201.034 119.102H215.718C216.36 119.102 216.889 119.591 216.889 120.183C216.889 120.775 216.36 121.264 215.718 121.264Z" fill="#CEE4FD"/>
<path d="M235.918 102.904H202.765C200.953 102.904 199.479 101.542 199.479 99.8692V88.6314C199.479 86.9584 200.953 85.5962 202.765 85.5962H235.918C237.73 85.5962 239.204 86.9584 239.204 88.6314V99.8692C239.204 101.542 237.73 102.904 235.918 102.904Z" fill="#CEE4FD"/>
<path d="M236.928 120.642H226.107C223.975 120.642 222.868 119.62 222.868 118.377V113.594C222.868 112.336 223.975 111.329 225.321 111.329H236.142C237.505 111.329 238.595 112.351 238.595 113.594V118.377C238.611 119.635 237.505 120.642 236.928 120.642Z" fill="#CEE4FD"/>
<path d="M219.037 99.7804C222.269 99.7804 224.888 97.3608 224.888 94.3762C224.888 91.3915 222.269 88.972 219.037 88.972C215.805 88.972 213.185 91.3915 213.185 94.3762C213.185 97.3608 215.805 99.7804 219.037 99.7804Z" fill="#8C9BAB"/>
<path d="M220.127 93.6359L219.79 93.4582C218.973 93.0288 217.963 93.5619 217.963 94.4354V94.7908C217.963 95.6643 218.973 96.1973 219.79 95.768L220.127 95.5903C220.929 95.1461 220.929 94.0653 220.127 93.6359Z" fill="white"/>
<path d="M288.068 29.6443H287.283V45.1758H288.068V29.6443Z" fill="#58A7F7"/>
<path d="M13.4658 107.465C6.1875 107.465 0.255875 101.986 0.255875 95.2645C0.255875 88.5426 6.1875 83.0644 13.4658 83.0644C20.744 83.0644 26.6757 88.5426 26.6757 95.2645C26.6757 101.986 20.744 107.465 13.4658 107.465ZM13.4658 83.7751C6.60432 83.7751 1.02538 88.9276 1.02538 95.2645C1.02538 101.602 6.60432 106.754 13.4658 106.754C20.3272 106.754 25.9062 101.602 25.9062 95.2645C25.9062 88.9276 20.3112 83.7751 13.4658 83.7751Z" fill="#58A7F7"/>
<path d="M33.5532 94.8944H26.2909V95.6199H33.5532V94.8944Z" fill="#58A7F7"/>
<path d="M83.4109 94.8944H72.3492V95.6199H83.4109V94.8944Z" fill="#58A7F7"/>
<path d="M80.91 98.4034L80.365 97.9L83.2506 95.2645L80.365 92.7919L80.894 92.2589L84.3888 95.2497L80.91 98.4034Z" fill="#58A7F7"/>
<path d="M149.428 94.8944H115.009V95.6199H149.428V94.8944Z" fill="#58A7F7"/>
<path d="M146.687 98.5071C146.591 98.5071 146.479 98.4775 146.414 98.4034C146.27 98.2554 146.27 98.0333 146.414 97.9L149.316 95.2645L146.43 92.7919C146.27 92.6587 146.27 92.4218 146.414 92.2885C146.559 92.1405 146.815 92.1405 146.96 92.2737L150.438 95.2645L146.96 98.433C146.895 98.4774 146.783 98.5071 146.687 98.5071Z" fill="#58A7F7"/>
<path d="M191.094 59.1379C190.998 59.1379 190.886 59.1083 190.822 59.0342C190.677 58.8862 190.677 58.6641 190.822 58.5308L193.723 55.8953L190.838 53.4227C190.677 53.2895 190.677 53.0526 190.822 52.9193C190.966 52.7713 191.222 52.7713 191.367 52.9045L194.845 55.8953L191.367 59.0638C191.286 59.0934 191.19 59.1379 191.094 59.1379Z" fill="#58A7F7"/>
<path d="M121.133 105.57H95.8193C89.567 105.57 84.485 100.876 84.485 95.1017C84.485 89.3273 89.567 84.6338 95.8193 84.6338H121.133C127.385 84.6338 132.467 89.3273 132.467 95.1017C132.467 100.876 127.385 105.57 121.133 105.57ZM95.8193 85.3445C89.9998 85.3445 85.2545 89.7123 85.2545 95.1017C85.2545 100.476 89.9838 104.859 95.8193 104.859H121.133C126.952 104.859 131.698 100.491 131.698 95.1017C131.698 89.7271 126.968 85.3445 121.133 85.3445H95.8193Z" fill="#58A7F7"/>
<path d="M112.941 93.9912C113.742 93.9912 114.4 94.5983 114.4 95.3386C114.4 96.0789 113.742 96.6859 112.941 96.6859C112.139 96.6859 111.482 96.0789 111.482 95.3386C111.466 94.5983 112.123 93.9912 112.941 93.9912ZM112.941 93.2657C111.706 93.2657 110.696 94.1985 110.696 95.3386C110.696 96.4786 111.706 97.4114 112.941 97.4114C114.175 97.4114 115.185 96.4786 115.185 95.3386C115.185 94.1985 114.175 93.2657 112.941 93.2657Z" fill="#58A7F7"/>
<path d="M112.941 96.1529C113.428 96.1529 113.823 95.7883 113.823 95.3386C113.823 94.8888 113.428 94.5242 112.941 94.5242C112.454 94.5242 112.059 94.8888 112.059 95.3386C112.059 95.7883 112.454 96.1529 112.941 96.1529Z" fill="#58A7F7"/>
<path d="M166.133 108.397C165.62 108.397 165.123 108.22 164.738 107.864L152.314 96.3898C151.945 96.0493 151.737 95.5903 151.737 95.1017C151.737 94.6131 151.945 94.1541 152.314 93.8136L164.738 82.3389C165.508 81.6282 166.758 81.6282 167.544 82.3389L179.968 93.8136C180.337 94.1541 180.545 94.6131 180.545 95.1017C180.545 95.5903 180.337 96.0493 179.968 96.3898L167.544 107.864C167.143 108.22 166.646 108.397 166.133 108.397ZM165.283 107.346C165.748 107.776 166.518 107.776 166.983 107.346L179.407 95.8716C179.632 95.6643 179.76 95.383 179.76 95.0869C179.76 94.7908 179.632 94.5094 179.407 94.3022L166.983 82.8275C166.518 82.3981 165.748 82.3981 165.283 82.8275L152.859 94.3022C152.635 94.5094 152.506 94.7908 152.506 95.0869C152.506 95.383 152.635 95.6643 152.859 95.8716L165.283 107.346Z" fill="#58A7F7"/>
<path d="M166.534 108.975H165.748V146.582H166.534V108.975Z" fill="#58A7F7"/>
<path d="M166.518 81.5986H165.732V58.5012C165.732 56.9021 167.143 55.5844 168.891 55.5844H193.579V56.3099H168.891C167.576 56.3099 166.518 57.2871 166.518 58.5012V81.5986Z" fill="#58A7F7"/>
<path d="M241.449 65.5489H197.635C196.192 65.5489 195.006 64.4532 195.006 63.1207V48.5071C195.006 47.1746 196.192 46.0789 197.635 46.0789H241.449C242.892 46.0789 244.078 47.1746 244.078 48.5071V63.1207C244.078 64.468 242.892 65.5489 241.449 65.5489ZM197.635 46.8044C196.609 46.8044 195.791 47.5744 195.791 48.5071V63.1207C195.791 64.0683 196.625 64.8234 197.635 64.8234H241.449C242.475 64.8234 243.292 64.0535 243.292 63.1207V48.5071C243.292 47.5596 242.459 46.8044 241.449 46.8044H197.635Z" fill="#58A7F7"/>
<path d="M262.354 55.1698H244.88V55.8953H262.354V55.1698Z" fill="#58A7F7"/>
<path d="M259.58 58.7085C259.484 58.7085 259.372 58.6789 259.308 58.6048C259.164 58.4568 259.164 58.2347 259.308 58.1014L262.209 55.466L259.324 52.9934C259.164 52.8601 259.164 52.6232 259.308 52.49C259.452 52.3419 259.709 52.3419 259.853 52.4751L263.332 55.466L259.853 58.6344C259.773 58.6789 259.677 58.7085 259.58 58.7085Z" fill="#58A7F7"/>
<path d="M309.31 65.5489H265.496C264.053 65.5489 262.867 64.4532 262.867 63.1207V48.5071C262.867 47.1746 264.053 46.0789 265.496 46.0789H309.31C310.753 46.0789 311.939 47.1746 311.939 48.5071V63.1207C311.923 64.468 310.753 65.5489 309.31 65.5489ZM265.496 46.8044C264.47 46.8044 263.652 47.5744 263.652 48.5071V63.1207C263.652 64.0683 264.486 64.8234 265.496 64.8234H309.31C310.336 64.8234 311.154 64.0535 311.154 63.1207V48.5071C311.154 47.5596 310.32 46.8044 309.31 46.8044H265.496Z" fill="#58A7F7"/>
<path d="M348.988 67.6661C335.89 67.6661 325.229 62.1731 325.229 55.4067C325.229 48.6552 335.89 43.1474 348.988 43.1474C362.085 43.1474 372.746 48.6404 372.746 55.4067C372.746 62.1731 362.085 67.6661 348.988 67.6661ZM348.988 43.8728C336.323 43.8728 326.015 49.055 326.015 55.4067C326.015 61.7733 336.323 66.9406 348.988 66.9406C361.652 66.9406 371.961 61.7585 371.961 55.4067C371.961 49.055 361.652 43.8728 348.988 43.8728Z" fill="#58A7F7"/>
<path d="M295.266 26.8459H277.904C272.325 26.8459 267.821 22.6706 267.821 17.5329C267.821 12.3804 272.341 8.21996 277.904 8.21996H295.266C300.845 8.21996 305.35 12.3953 305.35 17.5329C305.35 22.6854 300.829 26.8459 295.266 26.8459Z" fill="#DEF0FF"/>
<path d="M262.354 17.7254H244.88V18.4509H262.354V17.7254Z" fill="#58A7F7"/>
<path d="M259.853 21.1456L259.292 20.6422L262.193 18.0067L259.308 15.5193L259.837 15.0011L263.316 17.9919L259.853 21.1456Z" fill="#58A7F7"/>
<path d="M209.113 16.1858H211.053V16.4967H209.498V17.2814H210.877V17.5924H209.498V18.762H209.113V16.1858Z" fill="black"/>
<path d="M212.24 16.1858H212.624V18.4659H214.035V18.7768H212.256V16.1858H212.24Z" fill="black"/>
<path d="M217.498 16.5557C217.69 16.7778 217.77 17.074 217.77 17.4293C217.77 17.8143 217.658 18.14 217.45 18.3917C217.209 18.6878 216.841 18.8359 216.392 18.8359C215.959 18.8359 215.622 18.7026 215.382 18.4361C215.157 18.1844 215.045 17.8587 215.045 17.4737C215.045 17.1184 215.141 16.8223 215.334 16.5705C215.574 16.2448 215.927 16.0968 216.408 16.0968C216.889 16.1116 217.257 16.2596 217.498 16.5557ZM217.161 18.1992C217.305 17.9771 217.386 17.7254 217.386 17.4293C217.386 17.1184 217.305 16.8815 217.129 16.689C216.953 16.4965 216.728 16.4077 216.424 16.4077C216.135 16.4077 215.895 16.4965 215.718 16.689C215.542 16.8667 215.446 17.148 215.446 17.5033C215.446 17.7846 215.526 18.0363 215.686 18.2288C215.847 18.4213 216.103 18.5249 216.456 18.5249C216.776 18.5249 217.017 18.4213 217.161 18.1992Z" fill="black"/>
<path d="M219.197 16.1858L219.726 18.2882L220.351 16.1858H220.768L221.41 18.2882L221.939 16.1858H222.355L221.618 18.762H221.217L220.576 16.6152L219.919 18.762H219.518L218.78 16.1858H219.197Z" fill="black"/>
<path d="M225.449 16.3631C225.642 16.5408 225.754 16.7332 225.77 16.9553H225.401C225.353 16.7925 225.273 16.6592 225.161 16.5556C225.033 16.4519 224.872 16.4075 224.648 16.4075C224.375 16.4075 224.151 16.4963 223.991 16.674C223.83 16.8517 223.734 17.133 223.734 17.5032C223.734 17.7993 223.814 18.051 223.958 18.2435C224.103 18.4359 224.327 18.5248 224.632 18.5248C224.904 18.5248 225.113 18.4211 225.257 18.2287C225.337 18.125 225.385 17.9918 225.433 17.8141H225.802C225.77 18.0806 225.658 18.3175 225.482 18.4952C225.257 18.7172 224.968 18.8209 224.6 18.8209C224.279 18.8209 224.007 18.7321 223.782 18.5544C223.494 18.3175 223.349 17.9473 223.349 17.4439C223.349 17.059 223.462 16.748 223.67 16.5112C223.91 16.2446 224.231 16.1114 224.632 16.1114C224.985 16.1114 225.257 16.2002 225.449 16.3631Z" fill="black"/>
<path d="M227.069 16.1858H227.453V17.2518H228.896V16.1858H229.281V18.762H228.896V17.5479H227.453V18.762H227.069V16.1858Z" fill="black"/>
<path d="M231.477 16.1858H231.91L232.92 18.762H232.503L232.215 17.9921H231.109L230.804 18.762H230.419L231.477 16.1858ZM232.086 17.7108L231.67 16.5707L231.221 17.7108H232.086Z" fill="black"/>
<path d="M234.09 16.1858H235.357C235.565 16.1858 235.742 16.2154 235.87 16.2746C236.126 16.3783 236.255 16.5855 236.255 16.8817C236.255 17.0297 236.223 17.163 236.142 17.2666C236.062 17.3703 235.982 17.4443 235.854 17.5035C235.966 17.5479 236.046 17.5924 236.094 17.6664C236.142 17.7404 236.174 17.8441 236.19 17.9921L236.207 18.3327C236.207 18.4363 236.223 18.5103 236.239 18.5548C236.255 18.6436 236.303 18.688 236.367 18.7176V18.7768H235.902C235.886 18.762 235.886 18.7324 235.87 18.688C235.87 18.6584 235.854 18.5844 235.854 18.4807L235.838 18.0513C235.822 17.8885 235.758 17.77 235.645 17.7108C235.581 17.6812 235.469 17.6664 235.309 17.6664H234.475V18.7768H234.09V16.1858ZM235.309 17.3703C235.485 17.3703 235.613 17.3407 235.726 17.2666C235.822 17.2074 235.87 17.089 235.87 16.9113C235.87 16.7336 235.806 16.6004 235.661 16.5411C235.581 16.5115 235.485 16.4819 235.357 16.4819H234.459V17.3703H235.309Z" fill="black"/>
<path d="M239.605 16.1858V16.4967H238.659V18.7768H238.275V16.4967H237.329V16.1858H239.605Z" fill="black"/>
<path d="M38.3145 93.5621H40.2543V93.873H38.6992V94.6577H40.078V94.9686H38.6992V96.1383H38.3145V93.5621Z" fill="black"/>
<path d="M41.4406 93.5621H41.8254V95.8422H43.2361V96.1531H41.4567V93.5621H41.4406Z" fill="black"/>
<path d="M46.6989 93.932C46.8913 94.1541 46.9715 94.4502 46.9715 94.8056C46.9715 95.1905 46.8593 95.5163 46.6509 95.768C46.4104 96.0641 46.0417 96.2121 45.5928 96.2121C45.1599 96.2121 44.8233 96.0789 44.5828 95.8124C44.3584 95.5607 44.2461 95.2349 44.2461 94.85C44.2461 94.4946 44.3423 94.1985 44.5347 93.9468C44.7752 93.6211 45.1279 93.473 45.6088 93.473C46.0898 93.4878 46.4585 93.6359 46.6989 93.932ZM46.3623 95.5755C46.5066 95.3534 46.5867 95.1017 46.5867 94.8056C46.5867 94.4946 46.5066 94.2577 46.3302 94.0653C46.1539 93.8728 45.9294 93.7839 45.6248 93.7839C45.3363 93.7839 45.0958 93.8728 44.9195 94.0653C44.7431 94.2429 44.6469 94.5243 44.6469 94.8796C44.6469 95.1609 44.7271 95.4126 44.8874 95.6051C45.0477 95.7976 45.3042 95.9012 45.6569 95.9012C45.9775 95.916 46.218 95.7976 46.3623 95.5755Z" fill="black"/>
<path d="M48.3983 93.5621L48.9273 95.6645L49.5525 93.5621H49.9694L50.6106 95.6645L51.1397 93.5621H51.5565L50.819 96.1383H50.4182L49.777 93.9914L49.1197 96.1383H48.7189L47.9815 93.5621H48.3983Z" fill="black"/>
<path d="M54.6505 93.7543C54.8429 93.9319 54.9551 94.1244 54.9712 94.3465H54.6024C54.5543 94.1836 54.4742 94.0504 54.362 93.9467C54.2337 93.8431 54.0734 93.7987 53.849 93.7987C53.5764 93.7987 53.352 93.8875 53.1917 94.0652C53.0314 94.2429 52.9352 94.5242 52.9352 94.8943C52.9352 95.1904 53.0153 95.4421 53.1596 95.6346C53.3039 95.8271 53.5283 95.9159 53.8329 95.9159C54.1055 95.9159 54.3139 95.8123 54.4582 95.6198C54.5383 95.5162 54.5864 95.3829 54.6345 95.2053H55.0032C54.9712 95.4718 54.8589 95.7087 54.6826 95.8863C54.4582 96.1084 54.1696 96.2121 53.8009 96.2121C53.4802 96.2121 53.2077 96.1232 52.9833 95.9456C52.6947 95.7087 52.5504 95.3385 52.5504 94.8351C52.5504 94.4501 52.6626 94.1392 52.871 93.9023C53.1115 93.6358 53.4321 93.5026 53.8329 93.5026C54.1856 93.4878 54.4582 93.5766 54.6505 93.7543Z" fill="black"/>
<path d="M56.2697 93.5621H56.6545V94.6281H58.0973V93.5621H58.482V96.1383H58.0973V94.9242H56.6545V96.1383H56.2697V93.5621Z" fill="black"/>
<path d="M60.6784 93.5621H61.1112L62.1212 96.1383H61.7044L61.4158 95.3684H60.3096L60.005 96.1383H59.6203L60.6784 93.5621ZM61.3036 95.0871L60.8868 93.947L60.4379 95.0871H61.3036Z" fill="black"/>
<path d="M63.2915 93.5621H64.558C64.7664 93.5621 64.9427 93.5917 65.071 93.6509C65.3275 93.7545 65.4557 93.9618 65.4557 94.2579C65.4557 94.406 65.4237 94.5392 65.3435 94.6429C65.2794 94.7465 65.1832 94.8206 65.0549 94.8798C65.1672 94.9242 65.2473 94.9686 65.2954 95.0427C65.3435 95.1167 65.3756 95.2203 65.3916 95.3684L65.4076 95.7089C65.4076 95.8126 65.4237 95.8866 65.4397 95.931C65.4557 96.0199 65.5038 96.0643 65.5679 96.0939V96.1531H65.103C65.087 96.1383 65.087 96.1087 65.071 96.0643C65.071 96.0347 65.0549 95.9606 65.0549 95.857L65.0389 95.4276C65.0229 95.2647 64.9587 95.1463 64.8465 95.0871C64.7824 95.0575 64.6702 95.0427 64.5099 95.0427H63.6762V96.1531H63.2915V93.5621ZM64.5259 94.7465C64.7022 94.7465 64.8305 94.7169 64.9427 94.6429C65.0549 94.5689 65.087 94.4652 65.087 94.2875C65.087 94.1099 65.0229 93.9766 64.8786 93.9174C64.7984 93.8878 64.7022 93.8582 64.574 93.8582H63.6762V94.7465H64.5259Z" fill="black"/>
<path d="M68.8063 93.5621V93.873H67.8604V96.1531H67.4757V93.873H66.5298V93.5621H68.8063Z" fill="black"/>
<path d="M205.41 17.7254H159.913V18.4509H205.41V17.7254Z" fill="#58A7F7"/>
<path d="M304.084 52.3567H269.52C268.798 52.3567 268.221 51.8237 268.221 51.1574C268.221 50.4911 268.798 49.9581 269.52 49.9581H304.084C304.805 49.9581 305.382 50.4911 305.382 51.1574C305.398 51.8089 304.805 52.3567 304.084 52.3567Z" fill="#CEE4FD"/>
<path d="M358.895 55.1402H339.08C338.359 55.1402 337.782 54.6072 337.782 53.9409C337.782 53.2747 338.359 52.7417 339.08 52.7417H358.895C359.616 52.7417 360.194 53.2747 360.194 53.9409C360.21 54.5924 359.616 55.1402 358.895 55.1402Z" fill="#CEE4FD"/>
<path d="M351.697 58.5752H339.08C338.359 58.5752 337.782 58.0422 337.782 57.3759C337.782 56.7097 338.359 56.1767 339.08 56.1767H351.697C352.418 56.1767 352.996 56.7097 352.996 57.3759C352.996 58.0422 352.418 58.5752 351.697 58.5752Z" fill="#CEE4FD"/>
<path d="M304.084 55.8509H269.52C268.798 55.8509 268.221 55.3179 268.221 54.6516C268.221 53.9854 268.798 53.4523 269.52 53.4523H304.084C304.805 53.4523 305.382 53.9854 305.382 54.6516C305.398 55.3179 304.805 55.8509 304.084 55.8509Z" fill="#CEE4FD"/>
<path d="M285.134 59.508H269.664C268.943 59.508 268.366 58.975 268.366 58.3087C268.366 57.6424 268.943 57.1094 269.664 57.1094H285.134C285.856 57.1094 286.433 57.6424 286.433 58.3087C286.433 58.975 285.856 59.508 285.134 59.508Z" fill="#CEE4FD"/>
<path d="M159.945 1.89778H52.9352V32.0725H159.945V1.89778Z" fill="white"/>
<path d="M160.33 32.4426H52.5344V1.54243H160.33V32.4426ZM53.3199 31.7171H159.56V2.26793H53.3199V31.7171Z" fill="#58A7F7"/>
<path d="M53.2879 3.57087C52.4222 3.57087 51.7168 2.9194 51.7168 2.11987C51.7168 1.32035 52.4222 0.668884 53.2879 0.668884C54.1536 0.668884 54.8589 1.32035 54.8589 2.11987C54.8589 2.9194 54.1536 3.57087 53.2879 3.57087Z" fill="white"/>
<path d="M54.0894 3.94101H52.5023C51.8611 3.94101 51.332 3.45241 51.332 2.86017V1.39438C51.332 0.802136 51.8611 0.313538 52.5023 0.313538H54.0894C54.7307 0.313538 55.2597 0.802136 55.2597 1.39438V2.86017C55.2597 3.45241 54.7307 3.94101 54.0894 3.94101ZM52.5023 1.03903C52.2939 1.03903 52.1176 1.2019 52.1176 1.39438V2.86017C52.1176 3.05265 52.2939 3.21552 52.5023 3.21552H54.0894C54.2978 3.21552 54.4742 3.05265 54.4742 2.86017V1.39438C54.4742 1.2019 54.2978 1.03903 54.0894 1.03903H52.5023Z" fill="#58A7F7"/>
<path d="M53.2879 33.1089C52.4222 33.1089 51.7168 32.4574 51.7168 31.6579C51.7168 30.8584 52.4222 30.2069 53.2879 30.2069C54.1536 30.2069 54.8589 30.8584 54.8589 31.6579C54.8589 32.4574 54.1536 33.1089 53.2879 33.1089Z" fill="white"/>
<path d="M54.0894 33.4642H52.5023C51.8611 33.4642 51.332 32.9756 51.332 32.3834V30.9176C51.332 30.3253 51.8611 29.8367 52.5023 29.8367H54.0894C54.7307 29.8367 55.2597 30.3253 55.2597 30.9176V32.3834C55.2597 32.9904 54.7307 33.4642 54.0894 33.4642ZM52.5023 30.5622C52.2939 30.5622 52.1176 30.7251 52.1176 30.9176V32.3834C52.1176 32.5759 52.2939 32.7387 52.5023 32.7387H54.0894C54.2978 32.7387 54.4742 32.5759 54.4742 32.3834V30.9176C54.4742 30.7251 54.2978 30.5622 54.0894 30.5622H52.5023Z" fill="#58A7F7"/>
<path d="M160.153 3.57087C159.288 3.57087 158.582 2.9194 158.582 2.11987C158.582 1.32035 159.288 0.668884 160.153 0.668884C161.019 0.668884 161.724 1.32035 161.724 2.11987C161.724 2.9194 161.019 3.57087 160.153 3.57087Z" fill="white"/>
<path d="M160.939 3.94101H159.352C158.711 3.94101 158.182 3.45241 158.182 2.86017V1.39438C158.182 0.802136 158.711 0.313538 159.352 0.313538H160.939C161.58 0.313538 162.109 0.802136 162.109 1.39438V2.86017C162.109 3.45241 161.58 3.94101 160.939 3.94101ZM159.352 1.03903C159.143 1.03903 158.967 1.2019 158.967 1.39438V2.86017C158.967 3.05265 159.143 3.21552 159.352 3.21552H160.939C161.147 3.21552 161.324 3.05265 161.324 2.86017V1.39438C161.324 1.2019 161.147 1.03903 160.939 1.03903H159.352Z" fill="#58A7F7"/>
<path d="M160.153 33.1089C159.288 33.1089 158.582 32.4574 158.582 31.6579C158.582 30.8584 159.288 30.2069 160.153 30.2069C161.019 30.2069 161.724 30.8584 161.724 31.6579C161.724 32.4574 161.019 33.1089 160.153 33.1089Z" fill="white"/>
<path d="M160.939 33.4642H159.352C158.711 33.4642 158.182 32.9756 158.182 32.3834V30.9176C158.182 30.3253 158.711 29.8367 159.352 29.8367H160.939C161.58 29.8367 162.109 30.3253 162.109 30.9176V32.3834C162.109 32.9904 161.58 33.4642 160.939 33.4642ZM159.352 30.5622C159.143 30.5622 158.967 30.7251 158.967 30.9176V32.3834C158.967 32.5759 159.143 32.7387 159.352 32.7387H160.939C161.147 32.7387 161.324 32.5759 161.324 32.3834V30.9176C161.324 30.7251 161.147 30.5622 160.939 30.5622H159.352Z" fill="#58A7F7"/>
<path d="M278.305 25.3505C282.953 25.3505 286.722 21.8704 286.722 17.5774C286.722 13.2844 282.953 9.8042 278.305 9.8042C273.657 9.8042 269.889 13.2844 269.889 17.5774C269.889 21.8704 273.657 25.3505 278.305 25.3505Z" fill="white"/>
<path d="M166.133 84.1156C165.107 84.1156 164.273 83.3457 164.273 82.3981C164.273 81.4505 165.107 80.6806 166.133 80.6806C167.159 80.6806 167.993 81.4505 167.993 82.3981C167.993 83.3605 167.159 84.1156 166.133 84.1156Z" fill="white"/>
<path d="M166.133 81.0656C166.935 81.0656 167.592 81.6726 167.592 82.4129C167.592 83.1532 166.935 83.7603 166.133 83.7603C165.332 83.7603 164.674 83.1532 164.674 82.4129C164.674 81.6726 165.332 81.0656 166.133 81.0656ZM166.133 80.3401C164.899 80.3401 163.889 81.2729 163.889 82.4129C163.889 83.553 164.899 84.4858 166.133 84.4858C167.368 84.4858 168.378 83.553 168.378 82.4129C168.378 81.2729 167.368 80.3401 166.133 80.3401Z" fill="#58A7F7"/>
<path d="M166.133 83.2273C166.62 83.2273 167.015 82.8627 167.015 82.4129C167.015 81.9632 166.62 81.5986 166.133 81.5986C165.646 81.5986 165.251 81.9632 165.251 82.4129C165.251 82.8627 165.646 83.2273 166.133 83.2273Z" fill="#58A7F7"/>
<path d="M166.133 109.33C165.107 109.33 164.273 108.56 164.273 107.613C164.273 106.665 165.107 105.895 166.133 105.895C167.159 105.895 167.993 106.665 167.993 107.613C167.993 108.56 167.159 109.33 166.133 109.33Z" fill="white"/>
<path d="M166.133 106.28C166.935 106.28 167.592 106.887 167.592 107.628C167.592 108.368 166.935 108.975 166.133 108.975C165.332 108.975 164.674 108.368 164.674 107.628C164.674 106.872 165.332 106.28 166.133 106.28ZM166.133 105.555C164.899 105.555 163.889 106.488 163.889 107.628C163.889 108.768 164.899 109.7 166.133 109.7C167.368 109.7 168.378 108.768 168.378 107.628C168.378 106.488 167.368 105.555 166.133 105.555Z" fill="#58A7F7"/>
<path d="M166.133 108.442C166.62 108.442 167.015 108.077 167.015 107.628C167.015 107.178 166.62 106.813 166.133 106.813C165.646 106.813 165.251 107.178 165.251 107.628C165.251 108.077 165.646 108.442 166.133 108.442Z" fill="#58A7F7"/>
<path d="M166.133 151.142C167.603 151.142 168.794 150.042 168.794 148.685C168.794 147.327 167.603 146.227 166.133 146.227C164.663 146.227 163.472 147.327 163.472 148.685C163.472 150.042 164.663 151.142 166.133 151.142Z" fill="white"/>
<path d="M166.133 146.582C167.384 146.582 168.41 147.53 168.41 148.685C168.41 149.84 167.384 150.787 166.133 150.787C164.883 150.787 163.857 149.84 163.857 148.685C163.857 147.53 164.883 146.582 166.133 146.582ZM166.133 145.857C164.45 145.857 163.071 147.13 163.071 148.685C163.071 150.239 164.45 151.513 166.133 151.513C167.816 151.513 169.195 150.239 169.195 148.685C169.195 147.13 167.816 145.857 166.133 145.857Z" fill="#58A7F7"/>
<path d="M166.133 149.943C166.886 149.943 167.496 149.38 167.496 148.685C167.496 147.99 166.886 147.426 166.133 147.426C165.381 147.426 164.77 147.99 164.77 148.685C164.77 149.38 165.381 149.943 166.133 149.943Z" fill="#58A7F7"/>
<path d="M287.683 29.896C289.153 29.896 290.345 28.7956 290.345 27.4382C290.345 26.0808 289.153 24.9804 287.683 24.9804C286.214 24.9804 285.022 26.0808 285.022 27.4382C285.022 28.7956 286.214 29.896 287.683 29.896Z" fill="white"/>
<path d="M287.683 25.3357C288.934 25.3357 289.96 26.2833 289.96 27.4382C289.96 28.593 288.934 29.5406 287.683 29.5406C286.433 29.5406 285.407 28.593 285.407 27.4382C285.407 26.2833 286.417 25.3357 287.683 25.3357ZM287.683 24.625C286 24.625 284.621 25.8984 284.621 27.453C284.621 29.0076 286 30.2809 287.683 30.2809C289.367 30.2809 290.745 29.0076 290.745 27.453C290.745 25.8984 289.367 24.625 287.683 24.625Z" fill="#58A7F7"/>
<path d="M287.683 28.6967C288.436 28.6967 289.046 28.1332 289.046 27.4382C289.046 26.7431 288.436 26.1797 287.683 26.1797C286.931 26.1797 286.321 26.7431 286.321 27.4382C286.321 28.1332 286.931 28.6967 287.683 28.6967Z" fill="#57A7F7"/>
<path d="M243.421 57.2427C242.395 57.2427 241.561 56.4728 241.561 55.5252C241.561 54.5776 242.395 53.8077 243.421 53.8077C244.447 53.8077 245.28 54.5776 245.28 55.5252C245.264 56.4876 244.431 57.2427 243.421 57.2427Z" fill="white"/>
<path d="M243.421 54.1927C244.222 54.1927 244.88 54.7997 244.88 55.54C244.88 56.2803 244.222 56.8874 243.421 56.8874C242.619 56.8874 241.962 56.2803 241.962 55.54C241.962 54.7997 242.603 54.1927 243.421 54.1927ZM243.421 53.4672C242.186 53.4672 241.176 54.3999 241.176 55.54C241.176 56.6801 242.186 57.6128 243.421 57.6128C244.655 57.6128 245.665 56.6801 245.665 55.54C245.649 54.3999 244.655 53.4672 243.421 53.4672Z" fill="#58A7F7"/>
<path d="M243.421 56.3543C243.908 56.3543 244.302 55.9897 244.302 55.54C244.302 55.0902 243.908 54.7257 243.421 54.7257C242.934 54.7257 242.539 55.0902 242.539 55.54C242.539 55.9897 242.934 56.3543 243.421 56.3543Z" fill="#58A7F7"/>
<path d="M287.683 47.7964C286.657 47.7964 285.824 47.0265 285.824 46.0789C285.824 45.1313 286.657 44.3614 287.683 44.3614C288.709 44.3614 289.543 45.1313 289.543 46.0789C289.527 47.0413 288.693 47.7964 287.683 47.7964Z" fill="white"/>
<path d="M287.683 44.7464C288.485 44.7464 289.142 45.3534 289.142 46.0937C289.142 46.834 288.485 47.4411 287.683 47.4411C286.882 47.4411 286.225 46.834 286.225 46.0937C286.209 45.3534 286.866 44.7464 287.683 44.7464ZM287.683 44.0209C286.449 44.0209 285.439 44.9537 285.439 46.0937C285.439 47.2338 286.449 48.1666 287.683 48.1666C288.918 48.1666 289.928 47.2338 289.928 46.0937C289.928 44.9537 288.918 44.0209 287.683 44.0209Z" fill="#58A7F7"/>
<path d="M287.683 46.9081C288.17 46.9081 288.565 46.5435 288.565 46.0937C288.565 45.644 288.17 45.2794 287.683 45.2794C287.196 45.2794 286.802 45.644 286.802 46.0937C286.802 46.5435 287.196 46.9081 287.683 46.9081Z" fill="#58A7F7"/>
<path d="M311.25 57.2427C310.224 57.2427 309.39 56.4728 309.39 55.5252C309.39 54.5776 310.224 53.8077 311.25 53.8077C312.276 53.8077 313.109 54.5776 313.109 55.5252C313.109 56.4876 312.276 57.2427 311.25 57.2427Z" fill="white"/>
<path d="M311.25 54.1927C312.051 54.1927 312.709 54.7997 312.709 55.54C312.709 56.2803 312.051 56.8874 311.25 56.8874C310.448 56.8874 309.791 56.2803 309.791 55.54C309.791 54.7997 310.448 54.1927 311.25 54.1927ZM311.25 53.4672C310.015 53.4672 309.005 54.3999 309.005 55.54C309.005 56.6801 310.015 57.6128 311.25 57.6128C312.484 57.6128 313.494 56.6801 313.494 55.54C313.494 54.3999 312.484 53.4672 311.25 53.4672Z" fill="#58A7F7"/>
<path d="M311.25 56.3543C311.737 56.3543 312.131 55.9897 312.131 55.54C312.131 55.0902 311.737 54.7257 311.25 54.7257C310.763 54.7257 310.368 55.0902 310.368 55.54C310.368 55.9897 310.763 56.3543 311.25 56.3543Z" fill="#58A7F7"/>
<path d="M324.283 55.1698H313.254V55.8953H324.283V55.1698Z" fill="#58A7F7"/>
<path d="M321.654 58.7085C321.558 58.7085 321.446 58.6789 321.382 58.6048C321.237 58.4568 321.237 58.2347 321.382 58.1014L324.283 55.466L321.398 52.9934C321.237 52.8601 321.237 52.6232 321.382 52.49C321.526 52.3419 321.782 52.3419 321.927 52.4751L325.405 55.466L321.927 58.6344C321.862 58.6789 321.75 58.7085 321.654 58.7085Z" fill="#58A7F7"/>
<path d="M159.913 19.4429C158.887 19.4429 158.053 18.673 158.053 17.7254C158.053 16.7778 158.887 16.0079 159.913 16.0079C160.939 16.0079 161.773 16.7778 161.773 17.7254C161.773 18.673 160.923 19.4429 159.913 19.4429Z" fill="white"/>
<path d="M159.913 16.3929C160.715 16.3929 161.372 16.9999 161.372 17.7402C161.372 18.4805 160.715 19.0876 159.913 19.0876C159.111 19.0876 158.454 18.4805 158.454 17.7402C158.454 16.9999 159.095 16.3929 159.913 16.3929ZM159.913 15.6674C158.679 15.6674 157.669 16.6002 157.669 17.7402C157.669 18.8803 158.679 19.8131 159.913 19.8131C161.147 19.8131 162.157 18.8803 162.157 17.7402C162.157 16.6002 161.147 15.6674 159.913 15.6674Z" fill="#58A7F7"/>
<path d="M159.913 18.5546C160.4 18.5546 160.795 18.19 160.795 17.7402C160.795 17.2905 160.4 16.9259 159.913 16.9259C159.426 16.9259 159.031 17.2905 159.031 17.7402C159.031 18.19 159.426 18.5546 159.913 18.5546Z" fill="#58A7F7"/>
<path d="M171.119 151.779L173.043 156.162L173.732 154.178L176.153 153.571L171.119 151.779Z" fill="#FE2C67"/>
<path d="M191.078 159.922H177.772C176.874 159.922 176.153 159.256 176.153 158.427V156.695C176.153 155.866 176.874 155.199 177.772 155.199H191.078C191.976 155.199 192.697 155.866 192.697 156.695V158.427C192.697 159.256 191.976 159.922 191.078 159.922Z" fill="#FE2C67"/>
<path d="M88.6211 67.0591L90.5449 71.4417L91.2182 69.4577L93.655 68.8506L88.6211 67.0591Z" fill="#848EE9"/>
<path d="M112.781 75.2024H95.2742C94.3764 75.2024 93.655 74.5361 93.655 73.707V71.9747C93.655 71.1455 94.3764 70.4793 95.2742 70.4793H112.781C113.678 70.4793 114.4 71.1455 114.4 71.9747V73.707C114.4 74.5361 113.678 75.2024 112.781 75.2024Z" fill="#848EE9"/>
<path d="M95.8834 102.135C100.266 102.135 103.819 98.8533 103.819 94.8056C103.819 90.7579 100.266 87.4766 95.8834 87.4766C91.5007 87.4766 87.9478 90.7579 87.9478 94.8056C87.9478 98.8533 91.5007 102.135 95.8834 102.135Z" fill="#FE2C67"/>
<mask id="mask0_1_5" style="mask-type:luminance" maskUnits="userSpaceOnUse" x="87" y="87" width="17" height="16">
<path d="M95.8834 102.135C100.266 102.135 103.819 98.8533 103.819 94.8056C103.819 90.7579 100.266 87.4766 95.8834 87.4766C91.5007 87.4766 87.9478 90.7579 87.9478 94.8056C87.9478 98.8533 91.5007 102.135 95.8834 102.135Z" fill="white"/>
</mask>
<g mask="url(#mask0_1_5)">
<path d="M94.4726 88.1429C93.655 88.2465 93.623 88.9276 93.623 88.9276C93.623 88.9276 93.0779 88.6167 92.7573 88.9868C92.4366 89.357 92.7573 89.6975 92.7573 89.6975C92.7573 89.6975 92.0359 89.357 91.603 89.9788C91.1702 90.6007 91.7152 91.0745 91.7152 91.0745C91.7152 91.0745 90.6411 91.1781 91.1381 92.4366C91.1381 92.4366 90.577 93.1917 91.5549 93.2806C91.5549 93.2806 91.3946 93.7988 91.9397 93.932C92.4847 94.0653 92.5969 93.5471 92.5969 93.5471C92.5969 93.5471 92.6771 94.9092 93.7833 95.5311L97.9675 95.457C97.9675 95.457 98.8492 94.9684 99.0736 93.4286C99.2981 91.8888 98.208 90.3786 97.0216 89.9196C97.0216 89.9196 97.3583 89.4014 96.9896 89.1349C96.6369 88.8832 96.0597 89.1201 96.0597 89.1201C96.0597 89.1201 95.9475 88.5426 95.3383 88.6907C95.3544 88.7055 95.0818 88.0688 94.4726 88.1429Z" fill="#12182C"/>
<path d="M99.1859 112.869L91.5228 112.499C91.5228 112.499 92.7893 106.754 92.9977 105.125C93.2061 103.497 93.0298 98.5219 93.2061 98.4034C93.2863 98.359 93.4947 98.3146 93.7191 98.285C94.0398 98.2406 94.3764 98.211 94.4886 98.1517C94.5848 98.1073 94.6169 97.5891 94.6169 97.0857C94.6329 96.6267 94.6169 96.2121 94.6169 96.2121L97.3422 96.1381C97.3422 96.1381 97.3102 96.5379 97.2941 96.9821C97.2781 97.4558 97.2781 97.9592 97.3262 98.0185C97.3903 98.0777 97.9354 98.1813 98.4003 98.2702C98.753 98.3294 99.0416 98.3738 99.0416 98.3738L99.1859 112.869Z" fill="#EFDE07"/>
<path d="M98.4324 98.4034C98.4324 99.3214 97.3743 100.062 96.0758 100.062C94.7772 100.062 93.7191 99.3214 93.7191 98.4034C93.7191 98.3738 93.7191 98.3294 93.7191 98.2998C94.0398 98.2554 94.3764 98.2258 94.4886 98.1665C94.5688 98.1221 94.6009 97.2782 94.6169 96.6711C94.6169 96.4935 94.6329 96.3306 94.6329 96.2269C95.0337 96.0049 95.5307 96.7452 96.0758 96.7452C96.5246 96.7452 96.9896 95.9901 97.3583 96.1529C97.3583 96.2714 97.3422 96.4638 97.3422 96.6711C97.3262 97.2486 97.3102 97.9889 97.3422 98.0333C97.4064 98.0925 97.9514 98.1961 98.4164 98.285C98.4324 98.3146 98.4324 98.359 98.4324 98.4034Z" fill="#FF9971"/>
<path d="M93.3184 98.359C93.3184 98.359 93.3344 105.762 92.7733 108.161C92.2122 110.559 91.0579 114.631 90.8174 115.416C90.577 116.2 89.8556 120.109 89.7914 120.879C89.7273 121.664 89.1983 123.5 89.1983 123.5C89.1983 123.5 87.4188 120.272 88.3326 115.386C88.3326 115.386 85.9439 110.515 85.992 110.041C86.0401 109.567 87.6112 102.431 87.8356 102.061C88.06 101.705 88.7654 99.8544 89.3586 99.6619C89.9518 99.4695 93.3184 98.359 93.3184 98.359Z" fill="#454384"/>
<path d="M98.8332 98.3294C98.8332 98.3294 98.8813 109.36 98.8813 110.337C98.8813 111.314 98.8492 115.193 98.8813 116.289C98.9133 117.385 98.9614 123.5 98.9614 123.5L102.873 123.396V117.873L105.55 117.962C105.55 117.962 104.861 109.508 104.701 107.761C104.54 106.014 103.258 100.284 102.039 99.5435C100.821 98.8032 99.4263 98.359 98.8332 98.3294Z" fill="#454384"/>
<path d="M98.9935 111.181C98.9294 111.166 98.8973 111.137 98.9133 111.092L100.837 101.676L99.2981 100.387L100.196 99.4547L98.9454 98.5515C98.9133 98.5219 98.8973 98.4775 98.9294 98.4478C98.9614 98.4182 99.0095 98.4034 99.0416 98.433L100.436 99.4399L99.5225 100.373L101.013 101.616L99.0736 111.122C99.0736 111.151 99.0416 111.181 98.9935 111.181Z" fill="#323266"/>
<path d="M102.729 117.903C102.681 117.903 102.649 117.873 102.649 117.829C102.649 117.77 102.408 111.299 102.408 109.878C102.408 108.457 102.104 104.444 101.959 103.541C101.815 102.638 102.039 100.062 102.039 99.9581C102.039 99.9136 102.088 99.884 102.136 99.884C102.184 99.884 102.216 99.9284 102.216 99.9729C102.216 100.002 101.975 102.638 102.136 103.526C102.296 104.429 102.585 108.457 102.585 109.878C102.585 111.285 102.825 117.755 102.825 117.814C102.809 117.873 102.777 117.903 102.729 117.903Z" fill="#323266"/>
<path d="M92.3565 109.523C92.3244 109.523 92.2763 109.493 92.2763 109.464C92.2763 109.449 91.8435 107.583 91.4587 105.718C90.6892 101.883 90.8976 101.72 90.9778 101.661C91.2984 101.409 92.116 100.654 92.4206 100.373L90.9938 100.165L92.2122 98.7588C92.2442 98.7292 92.2923 98.7144 92.3244 98.744C92.3565 98.7736 92.3725 98.818 92.3404 98.8476L91.3144 100.047L92.7733 100.254L92.6611 100.358C92.613 100.402 91.5068 101.453 91.09 101.764C90.9617 101.912 91.2022 104.133 92.4366 109.419C92.4527 109.464 92.4206 109.508 92.3725 109.508C92.3725 109.523 92.3725 109.523 92.3565 109.523Z" fill="#323266"/>
<path d="M90.6732 113.358C90.6411 113.358 90.609 113.343 90.593 113.298L89.2784 109.73V109.715C89.2784 109.671 89.4708 104.933 89.4548 103.334C89.4387 101.735 89.1181 100.002 89.1021 99.9877C89.1021 99.9432 89.1181 99.8988 89.1662 99.8988C89.2143 99.8988 89.2624 99.9136 89.2624 99.9581C89.2624 99.9729 89.583 101.72 89.6151 103.334C89.6311 104.903 89.4548 109.419 89.4387 109.715L90.7373 113.254C90.7533 113.298 90.7213 113.343 90.6892 113.358H90.6732Z" fill="#323266"/>
<path d="M97.3422 96.1529C97.3422 96.2714 97.3262 96.4638 97.3262 96.6711C97.0697 96.9524 96.7491 97.1893 96.3643 97.3226C96.3643 97.3226 95.5147 97.6187 94.6009 96.6711C94.6009 96.4935 94.6169 96.3306 94.6169 96.2269C95.0177 96.0049 95.5147 96.7452 96.0597 96.7452C96.5246 96.7452 96.9896 95.9901 97.3422 96.1529Z" fill="#EA825E"/>
<path d="M93.0298 93.6655C93.0298 93.6655 93.9756 93.5915 93.8795 92.5995C93.8795 92.5995 94.5207 92.5551 94.4726 91.7111C94.4726 91.7111 95.5307 91.874 96.1078 91.1929C96.1078 91.1929 98.1919 90.9116 98.2721 93.4138C98.2721 93.4138 98.5446 93.2509 98.753 93.3694C98.9614 93.5026 98.8011 94.465 98.3041 94.8352C98.3041 94.8352 98.1919 94.7759 98.1438 94.9536C98.0957 95.1313 97.5667 96.6119 96.3643 96.9969C96.3643 96.9969 94.8253 97.5299 93.655 94.85C93.655 94.85 93.5749 94.9832 93.3985 94.8352C93.2222 94.6871 92.5649 93.8432 93.0298 93.6655Z" fill="#FB986F"/>
<path d="M93.5268 95.0721C93.6684 95.0721 93.7833 94.966 93.7833 94.8352C93.7833 94.7043 93.6684 94.5983 93.5268 94.5983C93.3851 94.5983 93.2703 94.7043 93.2703 94.8352C93.2703 94.966 93.3851 95.0721 93.5268 95.0721Z" fill="#EFDE07"/>
<path d="M98.2881 94.8944C98.4298 94.8944 98.5446 94.7883 98.5446 94.6575C98.5446 94.5267 98.4298 94.4206 98.2881 94.4206C98.1464 94.4206 98.0316 94.5267 98.0316 94.6575C98.0316 94.7883 98.1464 94.8944 98.2881 94.8944Z" fill="#EFDE07"/>
<path d="M96.204 91.2521L96.0116 91.1337C96.0116 91.1337 96.2681 90.7931 96.3002 90.4082C96.3483 89.9196 96.9896 89.8456 97.0216 89.8307L97.0537 90.038C97.0537 90.038 96.5727 90.0973 96.5407 90.423C96.4765 90.8524 96.204 91.2373 96.204 91.2521Z" fill="#2E3049"/>
<path d="M92.2763 92.7919C92.116 92.6883 91.8595 92.3774 92.0038 91.9332C92.132 91.5927 92.4206 91.4742 92.629 91.4594C92.5809 91.2669 92.5328 90.956 92.7733 90.7487C93.126 90.4526 93.5588 90.6451 93.5749 90.6451L93.4787 90.8376C93.4626 90.8376 93.1741 90.7043 92.9336 90.9116C92.6931 91.1189 92.8855 91.5334 92.9015 91.5334L92.9817 91.7111L92.7733 91.6815C92.7252 91.6815 92.3565 91.6223 92.2122 92.0072C92.0679 92.407 92.3725 92.6291 92.3885 92.6291L92.2763 92.7919Z" fill="#2E3049"/>
<path d="M95.0497 90.9264C94.9215 90.8079 94.7291 90.497 95.0177 90.1565C95.1139 90.038 95.2261 89.964 95.3704 89.9492C95.6589 89.9196 95.9154 90.1269 95.9315 90.1269L95.7872 90.2897C95.7391 90.2453 95.5628 90.1417 95.4024 90.1565C95.3223 90.1713 95.2582 90.2009 95.2101 90.2749C94.9856 90.5562 95.2101 90.7635 95.2261 90.7783L95.0497 90.9264Z" fill="#2E3049"/>
<path d="M93.2703 92.3922C93.2703 92.3774 93.2061 91.9332 93.4787 91.6371C93.623 91.4742 93.8314 91.4002 94.1039 91.3854V91.5927C93.8955 91.5927 93.7512 91.6519 93.639 91.7703C93.4306 91.9924 93.4787 92.3626 93.4787 92.3626L93.2703 92.3922Z" fill="#2E3049"/>
<path d="M94.168 93.2657C94.136 93.2657 94.1039 93.2509 94.0879 93.2213C94.0558 93.1769 94.0558 93.1029 94.1039 93.0733C94.3444 92.8956 94.9215 92.6439 95.4185 92.9844C95.4666 93.014 95.4826 93.0881 95.4505 93.1325C95.4185 93.1769 95.3383 93.1917 95.2902 93.1621C94.7932 92.8364 94.2482 93.2361 94.2482 93.2509C94.2161 93.2509 94.1841 93.2657 94.168 93.2657Z" fill="#12182C"/>
<path d="M97.743 93.2657C97.711 93.2657 97.6789 93.2509 97.6468 93.2213C97.5346 93.0881 97.4064 92.9992 97.2461 92.9844C96.9735 92.9548 96.717 93.1177 96.717 93.1325C96.6689 93.1621 96.5888 93.1621 96.5567 93.1177C96.5246 93.0733 96.5246 92.9992 96.5727 92.9696C96.5888 92.9548 96.8934 92.7475 97.2621 92.7919C97.4705 92.8216 97.6629 92.9252 97.8071 93.1177C97.8392 93.1621 97.8392 93.2361 97.7911 93.2657C97.7911 93.2509 97.7591 93.2657 97.743 93.2657Z" fill="#12182C"/>
<path d="M96.1399 94.8944C96.1238 94.8944 96.1078 94.8944 96.0918 94.8944L95.7231 94.8796C95.691 94.8796 95.675 94.85 95.675 94.8204C95.675 94.7908 95.707 94.7612 95.7391 94.776L96.1078 94.7908C96.2361 94.7908 96.3002 94.776 96.3323 94.7463C96.3804 94.6723 96.3323 94.4946 96.2361 94.2281C96.0277 93.7099 96.3483 93.3102 96.3483 93.2954C96.3643 93.2657 96.3964 93.2657 96.4284 93.2806C96.4605 93.2954 96.4605 93.325 96.4445 93.3546C96.4445 93.3546 96.1559 93.7247 96.3483 94.1837C96.4765 94.5095 96.5246 94.6871 96.4445 94.8056C96.3643 94.8796 96.2521 94.8944 96.1399 94.8944Z" fill="#BF3A2C"/>
<path d="M95.2902 95.3386H96.6689C96.6689 95.3386 96.4285 95.8864 95.9796 95.8864C95.5307 95.8864 95.2902 95.3386 95.2902 95.3386Z" fill="white"/>
<path d="M95.0658 93.8728C95.1897 93.8728 95.2902 93.7667 95.2902 93.6359C95.2902 93.5051 95.1897 93.399 95.0658 93.399C94.9418 93.399 94.8413 93.5051 94.8413 93.6359C94.8413 93.7667 94.9418 93.8728 95.0658 93.8728Z" fill="#12182C"/>
<path d="M96.9735 93.8728C97.0975 93.8728 97.198 93.7667 97.198 93.6359C97.198 93.5051 97.0975 93.399 96.9735 93.399C96.8496 93.399 96.7491 93.5051 96.7491 93.6359C96.7491 93.7667 96.8496 93.8728 96.9735 93.8728Z" fill="#12182C"/>
</g>
<path d="M17.0248 95.1461H9.13729C8.41588 95.1461 7.83875 94.6131 7.83875 93.9468C7.83875 93.2805 8.41588 92.7475 9.13729 92.7475H17.0248C17.7462 92.7475 18.3233 93.2805 18.3233 93.9468C18.3393 94.6131 17.7462 95.1461 17.0248 95.1461Z" fill="#CEE4FD"/>
<path d="M170.478 96.0048H162.59C161.869 96.0048 161.292 95.4718 161.292 94.8056C161.292 94.1393 161.869 93.6063 162.59 93.6063H170.478C171.199 93.6063 171.776 94.1393 171.776 94.8056C171.776 95.4718 171.199 96.0048 170.478 96.0048Z" fill="#CEE4FD"/>
<path d="M236.431 53.5708H201.867C201.146 53.5708 200.569 53.0378 200.569 52.3715C200.569 51.7052 201.146 51.1722 201.867 51.1722H236.431C237.152 51.1722 237.73 51.7052 237.73 52.3715C237.73 53.023 237.152 53.5708 236.431 53.5708Z" fill="#CEE4FD"/>
<path d="M102.248 15.0307H62.5059C60.9509 15.0307 59.6844 13.861 59.6844 12.4249C59.6844 10.9887 60.9509 9.819 62.5059 9.819H102.248C103.803 9.819 105.069 10.9887 105.069 12.4249C105.069 13.861 103.803 15.0307 102.248 15.0307Z" fill="#CEE4FD"/>
<path d="M147.617 23.7663H62.5059C60.9509 23.7663 59.6844 22.5966 59.6844 21.1604C59.6844 19.7242 60.9509 18.5546 62.5059 18.5546H147.617C149.172 18.5546 150.438 19.7242 150.438 21.1604C150.438 22.5966 149.172 23.7663 147.617 23.7663Z" fill="#CEE4FD"/>
<path d="M236.431 57.065H201.867C201.146 57.065 200.569 56.532 200.569 55.8657C200.569 55.1995 201.146 54.6664 201.867 54.6664H236.431C237.152 54.6664 237.73 55.1995 237.73 55.8657C237.73 56.532 237.152 57.065 236.431 57.065Z" fill="#CEE4FD"/>
<path d="M217.466 60.7221H201.995C201.274 60.7221 200.697 60.1891 200.697 59.5228C200.697 58.8566 201.274 58.3235 201.995 58.3235H217.466C218.187 58.3235 218.764 58.8566 218.764 59.5228C218.78 60.1891 218.187 60.7221 217.466 60.7221Z" fill="#CEE4FD"/>
<path d="M13.4497 98.3294H9.13729C8.41588 98.3294 7.83875 97.7964 7.83875 97.1301C7.83875 96.4638 8.41588 95.9308 9.13729 95.9308H13.4497C14.1712 95.9308 14.7483 96.4638 14.7483 97.1301C14.7483 97.7816 14.1712 98.3294 13.4497 98.3294Z" fill="#CEE4FD"/>
<path d="M184.425 190.423H73.0226C72.5897 190.423 72.237 190.097 72.237 189.697C72.237 189.298 72.5897 188.972 73.0226 188.972H184.425C184.858 188.972 185.211 189.298 185.211 189.697C185.211 190.097 184.858 190.423 184.425 190.423Z" fill="#3485FF"/>
<path d="M127.209 190.053H125.654V282.903H127.209V190.053Z" fill="#3485FF"/>
<path d="M142.576 284.354H110.786C110.353 284.354 110 284.029 110 283.629C110 283.229 110.353 282.903 110.786 282.903H142.576C143.009 282.903 143.361 283.229 143.361 283.629C143.361 284.029 143.009 284.354 142.576 284.354Z" fill="#3485FF"/>
<path d="M151.384 144.613L161.099 186.707H179.856V189.342H83.1544L73.0867 145.738C72.6057 143.651 74.3211 141.667 76.6457 141.652L146.623 141.089C148.915 141.074 150.903 142.54 151.384 144.613Z" fill="#151A2D"/>
<path d="M148.739 146.182L158.278 186.899H85.8156L76.0846 146.182H148.739Z" fill="white"/>
<path d="M142.102 149.41L150.022 181.524H93.8314L84.8858 149.41H142.102Z" fill="#D7E7FF"/>
<path d="M105.527 154.563C106.105 153.932 105.794 152.813 104.834 152.064C103.874 151.314 102.627 151.218 102.05 151.849C101.473 152.479 101.783 153.598 102.744 154.348C103.704 155.097 104.95 155.194 105.527 154.563Z" fill="#3485FF"/>
<path d="M101.607 153.289C101.398 152.727 101.462 152.179 101.767 151.779C102.055 151.394 102.552 151.187 103.13 151.187C104.316 151.187 105.566 152.046 105.967 153.141C106.176 153.704 106.111 154.252 105.807 154.651C105.518 155.036 105.021 155.244 104.444 155.244C103.242 155.229 101.991 154.37 101.607 153.289ZM102.2 152.06C101.991 152.327 101.959 152.712 102.104 153.126C102.424 154.015 103.466 154.74 104.428 154.74C104.829 154.74 105.166 154.607 105.358 154.355C105.566 154.089 105.598 153.704 105.454 153.289C105.134 152.401 104.091 151.675 103.13 151.675C102.729 151.675 102.392 151.809 102.2 152.06Z" fill="#1569BC"/>
<path d="M98.4744 154.565C99.0517 153.934 98.7412 152.815 97.7809 152.066C96.8206 151.316 95.5742 151.22 94.9969 151.851C94.4197 152.482 94.7302 153.601 95.6905 154.35C96.6508 155.1 97.8972 155.196 98.4744 154.565Z" fill="#3485FF"/>
<path d="M94.5528 153.289C94.3444 152.727 94.4085 152.179 94.7131 151.779C95.0017 151.394 95.4986 151.187 96.0758 151.187C97.2621 151.187 98.5125 152.046 98.9133 153.141C99.1217 153.704 99.0576 154.252 98.753 154.651C98.4644 155.036 97.9675 155.244 97.3903 155.244C96.188 155.229 94.9536 154.37 94.5528 153.289ZM95.162 152.06C94.9536 152.327 94.9215 152.712 95.0658 153.126C95.3864 154.015 96.4285 154.74 97.3903 154.74C97.7911 154.74 98.1278 154.607 98.3202 154.355C98.5286 154.089 98.5606 153.704 98.4164 153.289C98.0957 152.401 97.0537 151.675 96.0918 151.675C95.675 151.675 95.3383 151.809 95.162 152.06Z" fill="#1569BC"/>
<path d="M91.695 154.57C92.2722 153.939 91.9617 152.82 91.0014 152.07C90.0411 151.321 88.7947 151.224 88.2174 151.855C87.6402 152.486 87.9507 153.605 88.911 154.355C89.8713 155.104 91.1177 155.2 91.695 154.57Z" fill="#3485FF"/>
<path d="M87.7715 153.289C87.5631 152.727 87.6272 152.179 87.9318 151.779C88.2204 151.394 88.7173 151.187 89.2945 151.187C90.4808 151.187 91.7312 152.046 92.132 153.141C92.3404 153.704 92.2763 154.252 91.9717 154.651C91.6831 155.036 91.1862 155.244 90.609 155.244C89.4227 155.229 88.1723 154.37 87.7715 153.289ZM88.3807 152.06C88.1723 152.327 88.1402 152.712 88.2845 153.126C88.6051 154.015 89.6472 154.74 90.609 154.74C91.0098 154.74 91.3465 154.607 91.5389 154.355C91.7473 154.089 91.7793 153.704 91.6351 153.289C91.3144 152.401 90.2724 151.675 89.3105 151.675C88.8937 151.675 88.5731 151.809 88.3807 152.06Z" fill="#1569BC"/>
<path d="M114.384 183.627H129.982C131.281 183.627 132.163 182.413 131.666 181.302L130.848 179.466C130.559 178.845 129.902 178.43 129.165 178.43H113.566C112.268 178.43 111.386 179.644 111.883 180.755L112.7 182.59C112.989 183.212 113.646 183.627 114.384 183.627Z" fill="#3485FF"/>
<path d="M123.778 162.854H139.248C140.355 162.854 141.188 161.906 140.964 160.9C140.787 160.145 140.082 159.612 139.248 159.612H123.778C122.672 159.612 121.838 160.559 122.063 161.566C122.239 162.306 122.96 162.854 123.778 162.854Z" fill="#333F60"/>
<path d="M121.806 161.61C121.678 161.063 121.822 160.485 122.207 160.056C122.592 159.612 123.169 159.36 123.778 159.36H139.248C140.194 159.36 141.028 159.982 141.22 160.84C141.349 161.388 141.204 161.966 140.819 162.395C140.435 162.839 139.858 163.091 139.248 163.091H123.778C122.832 163.091 121.999 162.469 121.806 161.61ZM123.778 159.863C123.329 159.863 122.912 160.041 122.624 160.367C122.335 160.692 122.239 161.107 122.319 161.507C122.463 162.129 123.073 162.588 123.762 162.588H139.232C139.681 162.588 140.098 162.41 140.387 162.084C140.675 161.758 140.771 161.344 140.691 160.944C140.547 160.322 139.938 159.863 139.248 159.863H123.778Z" fill="#1569BC"/>
<path d="M108.292 162.854H117.013C118.119 162.854 118.953 161.906 118.728 160.9C118.552 160.145 117.846 159.612 117.013 159.612H108.292C107.186 159.612 106.352 160.559 106.576 161.566C106.737 162.306 107.458 162.854 108.292 162.854Z" fill="#333F60"/>
<path d="M106.304 161.61C106.176 161.063 106.32 160.485 106.705 160.056C107.089 159.612 107.666 159.36 108.276 159.36H116.997C117.943 159.36 118.776 159.982 118.969 160.84C119.097 161.388 118.953 161.966 118.568 162.395C118.183 162.839 117.606 163.091 116.997 163.091H108.276C107.33 163.091 106.496 162.469 106.304 161.61ZM108.292 159.863C107.843 159.863 107.426 160.041 107.137 160.367C106.849 160.692 106.753 161.107 106.833 161.507C106.977 162.129 107.586 162.588 108.276 162.588H116.997C117.446 162.588 117.862 162.41 118.151 162.084C118.44 161.758 118.536 161.344 118.456 160.944C118.311 160.322 117.702 159.863 117.013 159.863H108.292Z" fill="#1569BC"/>
<path d="M133.702 168.155H140.467C141.573 168.155 142.407 167.207 142.182 166.2C142.006 165.445 141.3 164.912 140.467 164.912H133.702C132.595 164.912 131.762 165.86 131.986 166.866C132.163 167.622 132.884 168.155 133.702 168.155Z" fill="#333F60"/>
<path d="M131.73 166.926C131.601 166.378 131.746 165.8 132.13 165.371C132.515 164.927 133.092 164.675 133.702 164.675H140.467C141.413 164.675 142.246 165.297 142.439 166.156C142.567 166.704 142.423 167.281 142.038 167.71C141.653 168.155 141.076 168.406 140.467 168.406H133.702C132.756 168.406 131.922 167.784 131.73 166.926ZM133.702 165.179C133.253 165.179 132.836 165.356 132.547 165.682C132.259 166.008 132.163 166.422 132.243 166.822C132.387 167.444 132.996 167.903 133.686 167.903H140.451C140.9 167.903 141.316 167.725 141.605 167.399C141.894 167.074 141.99 166.659 141.91 166.259C141.765 165.638 141.156 165.179 140.467 165.179H133.702Z" fill="#1569BC"/>
<path d="M100.981 168.155H127.738C128.844 168.155 129.678 167.207 129.453 166.2C129.277 165.445 128.571 164.912 127.738 164.912H100.981C99.8752 164.912 99.0416 165.86 99.266 166.866C99.4424 167.622 100.148 168.155 100.981 168.155Z" fill="#333F60"/>
<path d="M99.0095 166.926C98.8813 166.378 99.0255 165.8 99.4103 165.371C99.795 164.927 100.372 164.675 100.981 164.675H127.738C128.684 164.675 129.517 165.297 129.71 166.156C129.838 166.704 129.694 167.281 129.309 167.71C128.924 168.155 128.347 168.406 127.738 168.406H100.981C100.036 168.406 99.2019 167.784 99.0095 166.926ZM100.981 165.179C100.532 165.179 100.116 165.356 99.8271 165.682C99.5385 166.008 99.4424 166.422 99.5225 166.822C99.6668 167.444 100.276 167.903 100.965 167.903H127.722C128.171 167.903 128.588 167.725 128.876 167.399C129.165 167.074 129.261 166.659 129.181 166.259C129.036 165.638 128.427 165.179 127.738 165.179H100.981Z" fill="#1569BC"/>
</svg>

